<svg width="14" height="14" viewBox="0 0 14 14" fill="none" xmlns="http://www.w3.org/2000/svg">
<path d="M6.31368 1.94543C6.59445 1.35152 7.40555 1.35152 7.68632 1.94543L8.79294 4.28624C8.90433 4.52186 9.11954 4.68526 9.36856 4.72326L11.8445 5.10112C12.472 5.19689 12.7221 6.00231 12.2678 6.46435L10.4775 8.28511C10.2969 8.46871 10.2145 8.73333 10.2571 8.99268L10.6795 11.564C10.7867 12.2169 10.1304 12.7147 9.56888 12.4064L7.35625 11.1914C7.13323 11.069 6.86677 11.069 6.64376 11.1914L4.43112 12.4064C3.86962 12.7147 3.21327 12.2169 3.32051 11.564L3.74288 8.99268C3.78548 8.73333 3.70308 8.46871 3.52255 8.28511L1.73218 6.46435C1.27786 6.00231 1.52797 5.19689 2.15551 5.10112L4.63144 4.72326C4.88046 4.68526 5.09567 4.52186 5.20707 4.28624L6.31368 1.94543Z" fill="#75ABFF" style="fill:#75ABFF;fill:color(display-p3 0.4600 0.6700 1.0000);fill-opacity:1;"/>
</svg>
