<svg width="116" height="38" viewBox="0 0 116 38" fill="none" xmlns="http://www.w3.org/2000/svg">
<g id="logo">
<g id="&#237;&#151;&#172;&#235;&#161;&#156;&#237;&#149;&#143;">
<path id="Vector" d="M114.346 4.22651V24.3714H106.446V4.22651C106.446 1.65903 108.303 0.31604 110.396 0.31604C112.49 0.31604 114.346 1.65903 114.346 4.22651ZM100.521 7.78149H82.2331C80.2976 7.78149 79.1916 6.2015 79.1916 4.66101C79.1916 3.12052 80.1396 1.50103 82.2331 1.50103H100.521C102.615 1.50103 103.563 3.12052 103.563 4.66101C103.563 6.2015 102.457 7.78149 100.521 7.78149ZM101.904 21.4089H81.7591C79.8236 21.4089 78.7571 20.0264 78.7571 18.4859C78.7571 16.9454 79.6656 15.6024 81.7591 15.6024H82.4306V12.1265C82.4306 10.27 83.8526 9.12447 86.1436 9.12447C88.395 9.12447 89.7775 10.3095 89.7775 12.1265V15.6024H93.1745V12.1265C93.1745 10.27 94.5175 9.12447 96.8085 9.12447C99.06 9.12447 100.561 10.3095 100.561 12.1265V15.6024H101.904C103.997 15.6024 104.906 16.9454 104.906 18.4859C104.906 20.0264 103.839 21.4089 101.904 21.4089ZM101.746 26.6228C107.908 26.3463 114.662 29.7038 115.65 37.4063H107.552C106.802 34.2463 103.286 31.7973 98.744 32.4293C95.3865 35.8263 89.1455 38.0383 84.0501 37.7223C81.6801 37.6038 80.4556 36.2608 80.4556 34.2463C80.4556 32.4688 81.7196 31.2048 84.0106 31.2048C89.027 31.1653 92.5425 28.9138 93.8855 25.6749C94.8335 23.3839 96.0975 22.7519 98.033 22.7519C100.324 22.7519 101.785 24.0949 101.785 25.8724C101.785 26.1489 101.785 26.3463 101.746 26.6228Z" fill="white" style="fill:white;fill-opacity:1;"/>
<path id="Vector_2" d="M62.2857 30.1383H73.4247C75.7946 30.1383 76.7426 31.7578 76.7426 33.3772C76.7426 35.0757 75.7551 36.6162 73.4247 36.6162H43.0889C40.7584 36.6162 39.7709 35.0757 39.7709 33.3772C39.7709 31.7578 40.7189 30.1383 43.0889 30.1383H54.2278V24.6478H49.0138C43.8789 24.6478 41.1929 21.9618 41.1929 17.6959V16.9849C41.1929 12.7584 43.8789 10.1514 49.0138 10.1514H66.2752V8.88742C66.2752 8.37393 66.1172 7.78143 65.2087 7.78143H44.6294C42.7729 7.78143 41.6274 6.24094 41.6274 4.62146C41.6274 3.08097 42.7729 1.50098 44.6294 1.50098H67.5787C72.9507 1.50098 74.4912 3.94996 74.4912 7.66293V16.1159H51.0678C50.1593 16.1159 49.7248 16.5504 49.7248 17.3009C49.7248 18.1304 50.1593 18.4859 51.0678 18.4859H72.5162C74.6887 18.4859 75.5181 20.1448 75.5181 21.6063C75.5181 23.0678 74.6492 24.6478 72.5162 24.6478H62.2857V30.1383Z" fill="white" style="fill:white;fill-opacity:1;"/>
<path id="Vector_3" d="M1.93015 12.2449V10.3489C1.93015 9.71693 2.04865 9.08494 2.28564 8.57144C1.06115 8.25544 0.350159 7.26795 0.350159 5.92496C0.350159 4.26597 1.33765 3.23898 3.27314 3.23898H6.67011C6.82811 1.30349 8.0526 0 10.3831 0C12.7136 0 13.8986 1.30349 14.0566 3.23898H17.4535C19.389 3.23898 20.416 4.26597 20.416 5.92496C20.416 7.26795 19.705 8.25544 18.441 8.57144C18.678 9.12443 18.7965 9.71693 18.7965 10.3489V12.2449C18.7965 16.6689 16.1895 19.6709 10.3831 19.6709C4.57663 19.6709 1.93015 16.6689 1.93015 12.2449ZM19.5865 11.6524C19.5865 9.83543 20.7715 8.57144 22.707 8.45294V3.51547C22.707 1.65899 23.892 0.315998 25.9855 0.315998C28.079 0.315998 29.2245 1.65899 29.2245 3.51547V20.0264H22.707V14.8124C20.7715 14.7334 19.5865 13.5089 19.5865 11.6524ZM37.5194 3.63397V20.0264H30.8044V3.63397C30.8044 1.65899 32.0684 0.315998 34.1619 0.315998C36.2554 0.315998 37.5194 1.65899 37.5194 3.63397ZM12.1606 12.6794V10.1909C12.1606 8.88744 11.4496 8.17644 10.3831 8.17644C9.27709 8.17644 8.5661 8.88744 8.5661 10.1909V12.6794C8.5661 13.9434 9.27709 14.5359 10.3831 14.5359C11.4496 14.5359 12.1606 13.9434 12.1606 12.6794ZM12.4766 32.7848H36.3344C37.9144 32.7848 38.5859 33.9698 38.5859 35.1547C38.5859 36.2607 37.9539 37.4062 36.3344 37.4062H8.8031C5.20862 37.4062 3.27314 35.1548 3.27314 32.4293V31.5208C3.27314 28.8743 5.20862 27.0968 8.8031 27.0968H29.5404V26.2278C29.5404 25.7538 29.422 25.5563 28.9085 25.5563H5.88012C4.33963 25.5563 3.70763 24.4503 3.70763 23.2653C3.70763 22.1593 4.37913 21.0138 5.88012 21.0138H32.9374C36.3739 21.0138 37.5589 22.0408 37.5589 25.0428V31.2048H12.4766C11.9236 31.2048 11.6471 31.5603 11.6471 31.9158V32.0738C11.6471 32.4688 11.9236 32.7848 12.4766 32.7848Z" fill="white" style="fill:white;fill-opacity:1;"/>
</g>
</g>
</svg>
