<svg width="16" height="16" viewBox="0 0 16 16" fill="none" xmlns="http://www.w3.org/2000/svg">
<path fill-rule="evenodd" clip-rule="evenodd" d="M2.5 7.33333C2.5 4.66396 4.66396 2.5 7.33333 2.5C10.0027 2.5 12.1667 4.66396 12.1667 7.33333C12.1667 8.64032 11.6479 9.82614 10.805 10.6961C10.7846 10.7111 10.765 10.7279 10.7465 10.7464C10.728 10.7649 10.7112 10.7845 10.6962 10.805C9.82621 11.6479 8.64036 12.1667 7.33333 12.1667C4.66396 12.1667 2.5 10.0027 2.5 7.33333ZM11.0895 11.7966C10.0747 12.6515 8.76417 13.1667 7.33333 13.1667C4.11167 13.1667 1.5 10.555 1.5 7.33333C1.5 4.11167 4.11167 1.5 7.33333 1.5C10.555 1.5 13.1667 4.11167 13.1667 7.33333C13.1667 8.76413 12.6515 10.0746 11.7966 11.0894L14.3536 13.6464C14.5488 13.8416 14.5488 14.1582 14.3536 14.3535C14.1583 14.5488 13.8417 14.5488 13.6465 14.3535L11.0895 11.7966Z" fill="#222222" style="fill:#222222;fill:color(display-p3 0.1333 0.1333 0.1333);fill-opacity:1;"/>
</svg>
