<svg width="16" height="16" viewBox="0 0 16 16" fill="none" xmlns="http://www.w3.org/2000/svg">
<path fill-rule="evenodd" clip-rule="evenodd" d="M4.00008 8C4.00008 8.36819 3.7016 8.66667 3.33341 8.66667C2.96522 8.66667 2.66675 8.36819 2.66675 8C2.66675 7.63181 2.96522 7.33333 3.33341 7.33333C3.7016 7.33333 4.00008 7.63181 4.00008 8ZM8.00008 8.66667C8.36827 8.66667 8.66675 8.36819 8.66675 8C8.66675 7.63181 8.36827 7.33333 8.00008 7.33333C7.63189 7.33333 7.33341 7.63181 7.33341 8C7.33341 8.36819 7.63189 8.66667 8.00008 8.66667ZM12.6667 8.66667C13.0349 8.66667 13.3334 8.36819 13.3334 8C13.3334 7.63181 13.0349 7.33333 12.6667 7.33333C12.2986 7.33333 12.0001 7.63181 12.0001 8C12.0001 8.36819 12.2986 8.66667 12.6667 8.66667Z" fill="#222222" style="fill:#222222;fill:color(display-p3 0.1333 0.1333 0.1333);fill-opacity:1;"/>
<path d="M3.33341 9.16667C3.97775 9.16667 4.50008 8.64433 4.50008 8H3.50008C3.50008 8.09205 3.42546 8.16667 3.33341 8.16667V9.16667ZM2.16675 8C2.16675 8.64433 2.68908 9.16667 3.33341 9.16667V8.16667C3.24137 8.16667 3.16675 8.09205 3.16675 8H2.16675ZM3.33341 6.83333C2.68908 6.83333 2.16675 7.35567 2.16675 8H3.16675C3.16675 7.90795 3.24137 7.83333 3.33341 7.83333V6.83333ZM4.50008 8C4.50008 7.35567 3.97775 6.83333 3.33341 6.83333V7.83333C3.42546 7.83333 3.50008 7.90795 3.50008 8H4.50008ZM8.16675 8C8.16675 8.09205 8.09213 8.16667 8.00008 8.16667V9.16667C8.64441 9.16667 9.16675 8.64433 9.16675 8H8.16675ZM8.00008 7.83333C8.09213 7.83333 8.16675 7.90795 8.16675 8H9.16675C9.16675 7.35567 8.64441 6.83333 8.00008 6.83333V7.83333ZM7.83341 8C7.83341 7.90795 7.90803 7.83333 8.00008 7.83333V6.83333C7.35575 6.83333 6.83341 7.35567 6.83341 8H7.83341ZM8.00008 8.16667C7.90803 8.16667 7.83341 8.09205 7.83341 8H6.83341C6.83341 8.64433 7.35575 9.16667 8.00008 9.16667V8.16667ZM12.8334 8C12.8334 8.09205 12.7588 8.16667 12.6667 8.16667V9.16667C13.3111 9.16667 13.8334 8.64433 13.8334 8H12.8334ZM12.6667 7.83333C12.7588 7.83333 12.8334 7.90795 12.8334 8H13.8334C13.8334 7.35567 13.3111 6.83333 12.6667 6.83333V7.83333ZM12.5001 8C12.5001 7.90795 12.5747 7.83333 12.6667 7.83333V6.83333C12.0224 6.83333 11.5001 7.35567 11.5001 8H12.5001ZM12.6667 8.16667C12.5747 8.16667 12.5001 8.09205 12.5001 8H11.5001C11.5001 8.64433 12.0224 9.16667 12.6667 9.16667V8.16667Z" fill="#222222" style="fill:#222222;fill:color(display-p3 0.1333 0.1333 0.1333);fill-opacity:1;"/>
</svg>
