<svg width="16" height="16" viewBox="0 0 16 16" fill="none" xmlns="http://www.w3.org/2000/svg">
<path fill-rule="evenodd" clip-rule="evenodd" d="M7.99992 4C8.36811 4 8.66659 3.70152 8.66659 3.33333C8.66659 2.96514 8.36811 2.66667 7.99992 2.66667C7.63173 2.66667 7.33325 2.96514 7.33325 3.33333C7.33325 3.70152 7.63173 4 7.99992 4ZM7.99992 8.66667C8.36811 8.66667 8.66659 8.36819 8.66659 8C8.66659 7.63181 8.36811 7.33333 7.99992 7.33333C7.63173 7.33333 7.33325 7.63181 7.33325 8C7.33325 8.36819 7.63173 8.66667 7.99992 8.66667ZM8.66659 12.6667C8.66659 13.0349 8.36811 13.3333 7.99992 13.3333C7.63173 13.3333 7.33325 13.0349 7.33325 12.6667C7.33325 12.2985 7.63173 12 7.99992 12C8.36811 12 8.66659 12.2985 8.66659 12.6667Z" fill="#222222" style="fill:#222222;fill:color(display-p3 0.1333 0.1333 0.1333);fill-opacity:1;"/>
<path d="M8.16659 3.33333C8.16659 3.42538 8.09197 3.5 7.99992 3.5V4.5C8.64425 4.5 9.16659 3.97767 9.16659 3.33333H8.16659ZM7.99992 3.16667C8.09197 3.16667 8.16659 3.24129 8.16659 3.33333H9.16659C9.16659 2.689 8.64425 2.16667 7.99992 2.16667V3.16667ZM7.83325 3.33333C7.83325 3.24129 7.90787 3.16667 7.99992 3.16667V2.16667C7.35559 2.16667 6.83325 2.689 6.83325 3.33333H7.83325ZM7.99992 3.5C7.90787 3.5 7.83325 3.42538 7.83325 3.33333H6.83325C6.83325 3.97767 7.35559 4.5 7.99992 4.5V3.5ZM8.16659 8C8.16659 8.09205 8.09197 8.16667 7.99992 8.16667V9.16667C8.64425 9.16667 9.16659 8.64433 9.16659 8H8.16659ZM7.99992 7.83333C8.09197 7.83333 8.16659 7.90795 8.16659 8H9.16659C9.16659 7.35567 8.64425 6.83333 7.99992 6.83333V7.83333ZM7.83325 8C7.83325 7.90795 7.90787 7.83333 7.99992 7.83333V6.83333C7.35559 6.83333 6.83325 7.35567 6.83325 8H7.83325ZM7.99992 8.16667C7.90787 8.16667 7.83325 8.09205 7.83325 8H6.83325C6.83325 8.64433 7.35559 9.16667 7.99992 9.16667V8.16667ZM7.99992 13.8333C8.64425 13.8333 9.16659 13.311 9.16659 12.6667H8.16659C8.16659 12.7587 8.09197 12.8333 7.99992 12.8333V13.8333ZM6.83325 12.6667C6.83325 13.311 7.35559 13.8333 7.99992 13.8333V12.8333C7.90787 12.8333 7.83325 12.7587 7.83325 12.6667H6.83325ZM7.99992 11.5C7.35559 11.5 6.83325 12.0223 6.83325 12.6667H7.83325C7.83325 12.5746 7.90787 12.5 7.99992 12.5V11.5ZM9.16659 12.6667C9.16659 12.0223 8.64425 11.5 7.99992 11.5V12.5C8.09197 12.5 8.16659 12.5746 8.16659 12.6667H9.16659Z" fill="#222222" style="fill:#222222;fill:color(display-p3 0.1333 0.1333 0.1333);fill-opacity:1;"/>
</svg>
