<svg width="16" height="16" viewBox="0 0 16 16" fill="none" xmlns="http://www.w3.org/2000/svg">
<path fill-rule="evenodd" clip-rule="evenodd" d="M14.6668 7.99992C14.6668 11.6818 11.6821 14.6666 8.00016 14.6666C4.31826 14.6666 1.3335 11.6818 1.3335 7.99992C1.3335 4.31802 4.31826 1.33325 8.00016 1.33325C11.6821 1.33325 14.6668 4.31802 14.6668 7.99992ZM8.00012 4.91667C8.32229 4.91667 8.58346 5.17783 8.58346 5.5V8.83333C8.58346 9.1555 8.32229 9.41667 8.00012 9.41667C7.67796 9.41667 7.41679 9.1555 7.41679 8.83333V5.5C7.41679 5.17783 7.67796 4.91667 8.00012 4.91667ZM8.00012 10.7499C7.67796 10.7499 7.41679 11.0111 7.41679 11.3333C7.41679 11.6554 7.67796 11.9166 8.00012 11.9166H8.00846C8.33062 11.9166 8.59179 11.6554 8.59179 11.3333C8.59179 11.0111 8.33062 10.7499 8.00846 10.7499H8.00012Z" fill="#FA6767" style="fill:#FA6767;fill:color(display-p3 0.9792 0.4039 0.4039);fill-opacity:1;"/>
</svg>
