<svg width="16" height="16" viewBox="0 0 16 16" fill="none" xmlns="http://www.w3.org/2000/svg">
<path fill-rule="evenodd" clip-rule="evenodd" d="M13.687 3.64645C13.8822 3.84171 13.8822 4.15829 13.687 4.35355L6.35363 11.6869C6.15837 11.8821 5.84179 11.8821 5.64653 11.6869L2.31319 8.35355C2.11793 8.15829 2.11793 7.84171 2.31319 7.64645C2.50846 7.45118 2.82504 7.45118 3.0203 7.64645L6.00008 10.6262L12.9799 3.64645C13.1751 3.45118 13.4917 3.45118 13.687 3.64645Z" fill="#222222" style="fill:#222222;fill:color(display-p3 0.1345 0.1345 0.1345);fill-opacity:1;"/>
<path fill-rule="evenodd" clip-rule="evenodd" d="M12.8385 3.50503C13.1119 3.23166 13.5551 3.23166 13.8284 3.50503C14.1018 3.7784 14.1018 4.22161 13.8284 4.49498L6.4951 11.8283C6.22174 12.1017 5.77852 12.1017 5.50516 11.8283L2.17182 8.49498C1.89846 8.22161 1.89846 7.7784 2.17182 7.50503C2.44519 7.23166 2.8884 7.23166 3.16177 7.50503L6.00013 10.3434L12.8385 3.50503ZM13.5456 3.78787C13.4284 3.67071 13.2385 3.67071 13.1213 3.78787L6.14155 10.7677C6.10404 10.8052 6.05317 10.8262 6.00013 10.8262C5.94709 10.8262 5.89622 10.8052 5.85871 10.7677L2.87893 7.78787C2.76177 7.67071 2.57182 7.67071 2.45466 7.78787C2.33751 7.90503 2.33751 8.09498 2.45466 8.21214L5.788 11.5455C5.90516 11.6626 6.0951 11.6626 6.21226 11.5455L13.5456 4.21214C13.6628 4.09498 13.6628 3.90503 13.5456 3.78787Z" fill="#222222" style="fill:#222222;fill:color(display-p3 0.1333 0.1333 0.1333);fill-opacity:1;"/>
</svg>
