<svg width="16" height="16" viewBox="0 0 16 16" fill="none" xmlns="http://www.w3.org/2000/svg">
<path fill-rule="evenodd" clip-rule="evenodd" d="M10.5496 9.69267C10.6059 9.74894 10.6505 9.81574 10.681 9.88926C10.7114 9.96278 10.7271 10.0416 10.7271 10.1212C10.7271 10.2007 10.7114 10.2795 10.681 10.3531C10.6505 10.4266 10.6059 10.4934 10.5496 10.5496C10.4933 10.6059 10.4265 10.6505 10.353 10.681C10.2795 10.7115 10.2007 10.7271 10.1211 10.7271C10.0416 10.7271 9.96276 10.7115 9.88924 10.681C9.81572 10.6505 9.74891 10.6059 9.69265 10.5496L7.99992 8.85691L6.30719 10.5496C6.25104 10.6061 6.18427 10.6509 6.11074 10.6815C6.0372 10.7121 5.95835 10.7278 5.87871 10.7278C5.79907 10.7278 5.72021 10.7121 5.64667 10.6815C5.57314 10.6509 5.50637 10.6061 5.45022 10.5496C5.39389 10.4934 5.3492 10.4266 5.31871 10.3531C5.28822 10.2796 5.27252 10.2008 5.27252 10.1212C5.27252 10.0416 5.28822 9.96275 5.31871 9.88922C5.3492 9.8157 5.39389 9.74891 5.45022 9.69267L7.14295 7.99994L5.45022 6.30722C5.39395 6.25095 5.34932 6.18415 5.31886 6.11063C5.28841 6.03711 5.27274 5.95831 5.27274 5.87873C5.27274 5.79916 5.28841 5.72036 5.31886 5.64684C5.34932 5.57332 5.39395 5.50652 5.45022 5.45025C5.50649 5.39398 5.57329 5.34934 5.64681 5.31889C5.72033 5.28844 5.79913 5.27276 5.87871 5.27276C5.95828 5.27276 6.03708 5.28844 6.1106 5.31889C6.18412 5.34934 6.25092 5.39398 6.30719 5.45025L7.99992 7.14298L9.69265 5.45025C9.74891 5.39398 9.81572 5.34934 9.88924 5.31889C9.96276 5.28844 10.0416 5.27276 10.1211 5.27276C10.2007 5.27276 10.2795 5.28844 10.353 5.31889C10.4265 5.34934 10.4933 5.39398 10.5496 5.45025C10.6059 5.50652 10.6505 5.57332 10.681 5.64684C10.7114 5.72036 10.7271 5.79916 10.7271 5.87873C10.7271 5.95831 10.7114 6.03711 10.681 6.11063C10.6505 6.18415 10.6059 6.25095 10.5496 6.30722L8.85689 7.99994L10.5496 9.69267ZM7.99992 1.33328C4.3181 1.33328 1.33325 4.31813 1.33325 7.99994C1.33325 11.6818 4.3181 14.6666 7.99992 14.6666C11.6817 14.6666 14.6666 11.6818 14.6666 7.99994C14.6666 4.31813 11.6817 1.33328 7.99992 1.33328Z" fill="#E2E3E5" style="fill:#E2E3E5;fill:color(display-p3 0.8863 0.8902 0.8980);fill-opacity:1;"/>
</svg>
