<svg width="16" height="16" viewBox="0 0 16 16" fill="none" xmlns="http://www.w3.org/2000/svg">
<path fill-rule="evenodd" clip-rule="evenodd" d="M4.16667 5.66667C4.16667 4.83824 4.83824 4.16667 5.66667 4.16667C6.49509 4.16667 7.16667 4.83824 7.16667 5.66667C7.16667 6.49509 6.49509 7.16667 5.66667 7.16667C4.83824 7.16667 4.16667 6.49509 4.16667 5.66667ZM5.66667 5.16667C5.39052 5.16667 5.16667 5.39052 5.16667 5.66667C5.16667 5.94281 5.39052 6.16667 5.66667 6.16667C5.94281 6.16667 6.16667 5.94281 6.16667 5.66667C6.16667 5.39052 5.94281 5.16667 5.66667 5.16667Z" fill="#222222" style="fill:#222222;fill:color(display-p3 0.1333 0.1333 0.1333);fill-opacity:1;"/>
<path fill-rule="evenodd" clip-rule="evenodd" d="M14.5 3.33333C14.5 2.32081 13.6792 1.5 12.6667 1.5H3.33333C2.32081 1.5 1.5 2.32081 1.5 3.33333V12.6667C1.5 13.6792 2.32081 14.5 3.33333 14.5H12.6667C13.6792 14.5 14.5 13.6792 14.5 12.6667V3.33333ZM3.33333 2.5C2.8731 2.5 2.5 2.8731 2.5 3.33333V12.6667C2.5 13.0629 2.77652 13.3945 3.14711 13.4791L10.3131 6.31311C10.5084 6.11785 10.825 6.11785 11.0202 6.31311L13.5 8.79289V3.33333C13.5 2.8731 13.1269 2.5 12.6667 2.5H3.33333ZM13.5 10.2071L10.6667 7.37377L4.54044 13.5H12.6667C13.1269 13.5 13.5 13.1269 13.5 12.6667V10.2071Z" fill="#222222" style="fill:#222222;fill:color(display-p3 0.1333 0.1333 0.1333);fill-opacity:1;"/>
</svg>
