<svg xmlns="http://www.w3.org/2000/svg" width="16" height="16" viewBox="0 0 16 16" fill="none">
  <path fill-rule="evenodd" clip-rule="evenodd" d="M7.99992 2.53346C5.87002 2.53346 4.0619 4.44186 4.0619 6.90124V6.90719L4.06186 6.90719L4.04562 8.3612C4.04491 9.41415 3.67697 10.2947 3.27546 10.9213H12.7249C12.3399 10.2936 11.9875 9.4117 11.9875 8.35812V8.35186H11.9876L12.0038 6.97038C12.0023 4.47261 10.1653 2.53346 7.99992 2.53346ZM2.99523 6.89819C2.99674 3.94529 5.19187 1.4668 7.99992 1.4668C10.8453 1.4668 13.0705 3.97932 13.0705 6.97343V6.9797H13.0704L13.0542 8.36115C13.0549 9.24207 13.3756 9.9793 13.7112 10.4843L13.325 10.7409L13.7112 10.4843C13.9124 10.7871 13.8931 11.1467 13.7938 11.4024C13.6976 11.65 13.4415 11.988 12.9955 11.988H3.00501C2.5518 11.988 2.29639 11.6399 2.20273 11.3912C2.10571 11.1336 2.08805 10.7678 2.29862 10.464L2.73697 10.7678L2.29862 10.464C2.64901 9.95838 2.97896 9.22757 2.97896 8.35812V8.35217L2.97899 8.35217L2.99523 6.89819ZM5.80545 13.0612C5.9893 12.831 6.32489 12.7935 6.55503 12.9774C6.93099 13.2777 7.43624 13.4668 7.99992 13.4668C8.56361 13.4668 9.06886 13.2777 9.44482 12.9774C9.67495 12.7935 10.0105 12.831 10.1944 13.0612C10.3782 13.2913 10.3407 13.6269 10.1106 13.8108C9.54298 14.2642 8.8022 14.5335 7.99992 14.5335C7.19764 14.5335 6.45687 14.2642 5.88926 13.8108C5.65913 13.6269 5.6216 13.2913 5.80545 13.0612Z" fill="#8CCC7D" style="fill:#8CCC7D;fill:color(display-p3 0.5509 0.8007 0.4896);fill-opacity:1;"/>
</svg>