<svg width="16" height="16" viewBox="0 0 16 16" fill="none" xmlns="http://www.w3.org/2000/svg">
<path d="M13.6385 3.02816C13.3127 2.70222 12.9258 2.44365 12.5001 2.26725C12.0744 2.09084 11.618 2.00004 11.1572 2.00004C10.6963 2.00004 10.24 2.09084 9.81424 2.26725C9.3885 2.44365 9.00168 2.70222 8.67588 3.02816L7.99975 3.7043L7.32361 3.02816C6.66553 2.37008 5.77299 2.00038 4.84232 2.00038C3.91166 2.00038 3.01911 2.37008 2.36104 3.02816C1.70296 3.68624 1.33325 4.57879 1.33325 5.50945C1.33325 6.44012 1.70296 7.33266 2.36104 7.99074L7.99975 13.6295L13.6385 7.99074C13.9644 7.66495 14.223 7.27813 14.3994 6.85238C14.5758 6.42663 14.6666 5.9703 14.6666 5.50945C14.6666 5.0486 14.5758 4.59227 14.3994 4.16652C14.223 3.74077 13.9644 3.35396 13.6385 3.02816Z" stroke="#FA6767" style="stroke:#FA6767;stroke:color(display-p3 0.9792 0.4039 0.4039);stroke-opacity:1;" stroke-width="0.956795" stroke-linecap="round" stroke-linejoin="round"/>
</svg>
