<svg width="16" height="16" viewBox="0 0 16 16" fill="none" xmlns="http://www.w3.org/2000/svg">
<path fill-rule="evenodd" clip-rule="evenodd" d="M7.99992 2.26356C4.83177 2.26356 2.26348 4.83185 2.26348 8C2.26348 11.1681 4.83177 13.7364 7.99992 13.7364C11.1681 13.7364 13.7364 11.1681 13.7364 8C13.7364 4.83185 11.1681 2.26356 7.99992 2.26356ZM1.33325 8C1.33325 4.3181 4.31802 1.33333 7.99992 1.33333C11.6818 1.33333 14.6666 4.3181 14.6666 8C14.6666 11.6819 11.6818 14.6667 7.99992 14.6667C4.31802 14.6667 1.33325 11.6819 1.33325 8ZM7.99992 5.05426C8.25679 5.05426 8.46503 5.2625 8.46503 5.51938V8C8.46503 8.25688 8.25679 8.46511 7.99992 8.46511C7.74304 8.46511 7.5348 8.25688 7.5348 8V5.51938C7.5348 5.2625 7.74304 5.05426 7.99992 5.05426ZM7.99992 10.0155C7.74304 10.0155 7.5348 10.2237 7.5348 10.4806C7.5348 10.7375 7.74304 10.9457 7.99992 10.9457H8.00659C8.26346 10.9457 8.4717 10.7375 8.4717 10.4806C8.4717 10.2237 8.26346 10.0155 8.00659 10.0155H7.99992Z" fill="#222222" style="fill:#222222;fill:color(display-p3 0.1333 0.1333 0.1333);fill-opacity:1;"/>
</svg>
