<svg width="24" height="24" viewBox="0 0 24 24" fill="none" xmlns="http://www.w3.org/2000/svg">
<path fill-rule="evenodd" clip-rule="evenodd" d="M20.5303 5.46967C20.8232 5.76256 20.8232 6.23744 20.5303 6.53033L9.53033 17.5303C9.23744 17.8232 8.76256 17.8232 8.46967 17.5303L3.46967 12.5303C3.17678 12.2374 3.17678 11.7626 3.46967 11.4697C3.76256 11.1768 4.23744 11.1768 4.53033 11.4697L9 15.9393L19.4697 5.46967C19.7626 5.17678 20.2374 5.17678 20.5303 5.46967Z" fill="#222222" style="fill:#222222;fill:color(display-p3 0.1333 0.1333 0.1333);fill-opacity:1;"/>
<path fill-rule="evenodd" clip-rule="evenodd" d="M19.3283 5.32824C19.6993 4.95724 20.3008 4.95724 20.6718 5.32824L20.5304 5.46966L20.6718 5.32824C21.0428 5.69923 21.0428 6.30074 20.6718 6.67174L9.6718 17.6717C9.3008 18.0427 8.6993 18.0427 8.3283 17.6717L3.3283 12.6717C2.9573 12.3007 2.9573 11.6992 3.3283 11.3282C3.6993 10.9572 4.3008 10.9572 4.6718 11.3282L9.00005 15.6565L19.3283 5.32824ZM20.389 5.61108C20.1742 5.39629 19.8259 5.39629 19.6111 5.61108L9.14147 16.0807C9.10396 16.1183 9.05309 16.1393 9.00005 16.1393C8.94701 16.1393 8.89613 16.1183 8.85863 16.0807L4.38896 11.6111C4.17417 11.3963 3.82593 11.3963 3.61114 11.6111C3.39635 11.8259 3.39635 12.1741 3.61114 12.3889L8.61114 17.3889C8.82593 17.6037 9.17417 17.6037 9.38896 17.3889L20.389 6.3889C20.6037 6.17411 20.6037 5.82587 20.389 5.61108Z" fill="#222222" style="fill:#222222;fill:color(display-p3 0.1333 0.1333 0.1333);fill-opacity:1;"/>
</svg>
