<svg width="24" height="24" viewBox="0 0 24 24" fill="none" xmlns="http://www.w3.org/2000/svg">
<path fill-rule="evenodd" clip-rule="evenodd" d="M15.8245 14.539C15.909 14.6234 15.9759 14.7236 16.0216 14.8339C16.0673 14.9442 16.0908 15.0624 16.0908 15.1818C16.0908 15.3011 16.0673 15.4193 16.0216 15.5296C15.9759 15.6399 15.909 15.7401 15.8245 15.8245C15.7401 15.9089 15.6399 15.9758 15.5297 16.0215C15.4194 16.0672 15.3012 16.0907 15.1818 16.0907C15.0625 16.0907 14.9443 16.0672 14.834 16.0215C14.7237 15.9758 14.6235 15.9089 14.5391 15.8245L12 13.2854L9.46091 15.8245C9.37668 15.9092 9.27653 15.9764 9.16623 16.0223C9.05593 16.0682 8.93764 16.0918 8.81818 16.0918C8.69872 16.0918 8.58044 16.0682 8.47013 16.0223C8.35983 15.9764 8.25969 15.9092 8.17546 15.8245C8.09096 15.7401 8.02392 15.6399 7.97819 15.5297C7.93245 15.4194 7.90891 15.3012 7.90891 15.1818C7.90891 15.0624 7.93245 14.9441 7.97819 14.8339C8.02392 14.7236 8.09096 14.6234 8.17546 14.539L10.7145 11.9999L8.17546 9.46085C8.09105 9.37644 8.0241 9.27624 7.97842 9.16596C7.93274 9.05568 7.90923 8.93749 7.90923 8.81812C7.90923 8.69876 7.93274 8.58056 7.97842 8.47028C8.0241 8.36 8.09105 8.2598 8.17545 8.17539C8.25986 8.09099 8.36006 8.02404 8.47034 7.97836C8.58062 7.93268 8.69882 7.90917 8.81818 7.90917C8.93755 7.90917 9.05574 7.93268 9.16602 7.97836C9.2763 8.02404 9.3765 8.09099 9.46091 8.17539L12 10.7145L14.5391 8.17539C14.6235 8.09099 14.7237 8.02404 14.834 7.97836C14.9443 7.93268 15.0625 7.90917 15.1818 7.90917C15.3012 7.90917 15.4194 7.93268 15.5297 7.97836C15.6399 8.02404 15.7401 8.09099 15.8245 8.17539C15.909 8.2598 15.9759 8.36 16.0216 8.47028C16.0673 8.58056 16.0908 8.69876 16.0908 8.81812C16.0908 8.93749 16.0673 9.05568 16.0216 9.16596C15.9759 9.27624 15.909 9.37644 15.8245 9.46085L13.2855 11.9999L15.8245 14.539ZM12 1.99994C6.47727 1.99994 2 6.47721 2 11.9999C2 17.5227 6.47727 21.9999 12 21.9999C17.5227 21.9999 22 17.5227 22 11.9999C22 6.47721 17.5227 1.99994 12 1.99994Z" fill="#E2E3E5" style="fill:#E2E3E5;fill:color(display-p3 0.8863 0.8902 0.8980);fill-opacity:1;"/>
</svg>
