<svg width="24" height="24" viewBox="0 0 24 24" fill="none" xmlns="http://www.w3.org/2000/svg">
<path fill-rule="evenodd" clip-rule="evenodd" d="M12 22C17.5228 22 22 17.5228 22 12C22 6.47715 17.5228 2 12 2C6.47715 2 2 6.47715 2 12C2 17.5228 6.47715 22 12 22ZM16.5351 9.52553C16.8253 9.23001 16.8211 8.75516 16.5255 8.46491C16.23 8.17467 15.7552 8.17895 15.4649 8.47447L10.5 13.5297L8.53509 11.529C8.24484 11.2335 7.76999 11.2292 7.47447 11.5195C7.17895 11.8097 7.17467 12.2846 7.46491 12.5801L9.96491 15.1255C10.1059 15.2691 10.2987 15.35 10.5 15.35C10.7013 15.35 10.8941 15.2691 11.0351 15.1255L16.5351 9.52553Z" fill="#888EFF" style="fill:#888EFF;fill:color(display-p3 0.5333 0.5569 1.0000);fill-opacity:1;"/>
</svg>
