<svg width="24" height="24" viewBox="0 0 24 24" fill="none" xmlns="http://www.w3.org/2000/svg">
<path fill-rule="evenodd" clip-rule="evenodd" d="M22 12C22 17.5228 17.5228 22 12 22C6.47715 22 2 17.5228 2 12C2 6.47715 6.47715 2 12 2C17.5228 2 22 6.47715 22 12ZM12 7.375C12.4832 7.375 12.875 7.76675 12.875 8.25V13.25C12.875 13.7332 12.4832 14.125 12 14.125C11.5168 14.125 11.125 13.7332 11.125 13.25V8.25C11.125 7.76675 11.5168 7.375 12 7.375ZM12 16.125C11.5168 16.125 11.125 16.5168 11.125 17C11.125 17.4832 11.5168 17.875 12 17.875H12.0125C12.4957 17.875 12.8875 17.4832 12.8875 17C12.8875 16.5168 12.4957 16.125 12.0125 16.125H12Z" fill="#FA6767" style="fill:#FA6767;fill:color(display-p3 0.9792 0.4039 0.4039);fill-opacity:1;"/>
</svg>
