<svg width="24" height="24" viewBox="0 0 24 24" fill="none" xmlns="http://www.w3.org/2000/svg">
<path d="M23 12C23 18.0751 18.0751 23 12 23C5.92487 23 1 18.0751 1 12C1 5.92487 5.92487 1 12 1C18.0751 1 23 5.92487 23 12Z" fill="black" style="fill:black;fill-opacity:1;"/>
<path d="M16.125 11.9993H12M12 11.9993H7.875M12 11.9993V16.1243M12 11.9993L12 7.87433M23 12C23 18.0751 18.0751 23 12 23C5.92487 23 1 18.0751 1 12C1 5.92487 5.92487 1 12 1C18.0751 1 23 5.92487 23 12Z" stroke="white" style="stroke:white;stroke-opacity:1;" stroke-width="1.77778" stroke-linecap="round"/>
</svg>
