<svg width="24" height="24" viewBox="0 0 24 24" fill="none" xmlns="http://www.w3.org/2000/svg">
<path d="M20.4578 4.54225C19.9691 4.05333 19.3889 3.66549 18.7503 3.40087C18.1117 3.13626 17.4272 3.00006 16.7359 3.00006C16.0446 3.00006 15.3601 3.13626 14.7215 3.40087C14.0829 3.66549 13.5026 4.05333 13.0139 4.54225L11.9997 5.55645L10.9855 4.54225C9.99842 3.55513 8.6596 3.00057 7.26361 3.00057C5.86761 3.00057 4.52879 3.55513 3.54168 4.54225C2.55456 5.52937 2 6.86819 2 8.26418C2 9.66018 2.55456 10.999 3.54168 11.9861L11.9997 20.4442L20.4578 11.9861C20.9467 11.4974 21.3346 10.9172 21.5992 10.2786C21.8638 9.63995 22 8.95545 22 8.26418C22 7.57291 21.8638 6.88841 21.5992 6.24979C21.3346 5.61117 20.9467 5.03094 20.4578 4.54225Z" stroke="#FA6767" style="stroke:#FA6767;stroke:color(display-p3 0.9792 0.4039 0.4039);stroke-opacity:1;" stroke-width="1.43519" stroke-linecap="round" stroke-linejoin="round"/>
</svg>
