<svg width="24" height="24" viewBox="0 0 24 24" fill="none" xmlns="http://www.w3.org/2000/svg">
<path fill-rule="evenodd" clip-rule="evenodd" d="M8.91571 4.29116C9.03409 4.10926 9.23339 4 9.44681 4H14.5532C14.7666 4 14.9659 4.10926 15.0843 4.29116L16.5969 6.61538H19.6596C20.2803 6.61538 20.8756 6.86797 21.3145 7.31758C21.7534 7.76718 22 8.37698 22 9.01282V18.6026C22 19.2384 21.7534 19.8482 21.3145 20.2978C20.8756 20.7474 20.2803 21 19.6596 21H4.34043C3.71971 21 3.12441 20.7474 2.68549 20.2978C2.24658 19.8482 2 19.2384 2 18.6026V9.01282C2 8.37698 2.24658 7.76718 2.68549 7.31758C3.12441 6.86797 3.71971 6.61538 4.34043 6.61538H7.40307L8.91571 4.29116ZM9.78842 5.30769L8.27578 7.63192C8.15739 7.81382 7.9581 7.92308 7.74468 7.92308H4.34043C4.05828 7.92308 3.78769 8.03789 3.58818 8.24226C3.38868 8.44662 3.2766 8.7238 3.2766 9.01282V18.6026C3.2766 18.8916 3.38868 19.1688 3.58818 19.3731C3.78769 19.5775 4.05828 19.6923 4.34043 19.6923H19.6596C19.9417 19.6923 20.2123 19.5775 20.4118 19.3731C20.6113 19.1688 20.7234 18.8916 20.7234 18.6026V9.01282C20.7234 8.7238 20.6113 8.44662 20.4118 8.24226C20.2123 8.03789 19.9417 7.92308 19.6596 7.92308H16.2553C16.0419 7.92308 15.8426 7.81382 15.7242 7.63192L14.2116 5.30769H9.78842Z" fill="#222222" style="fill:#222222;fill:color(display-p3 0.1345 0.1345 0.1345);fill-opacity:1;"/>
<path fill-rule="evenodd" clip-rule="evenodd" d="M12 10.5385C10.4724 10.5385 9.23404 11.807 9.23404 13.3718C9.23404 14.9366 10.4724 16.2051 12 16.2051C13.5276 16.2051 14.766 14.9366 14.766 13.3718C14.766 11.807 13.5276 10.5385 12 10.5385ZM7.95745 13.3718C7.95745 11.0848 9.76736 9.23077 12 9.23077C14.2326 9.23077 16.0426 11.0848 16.0426 13.3718C16.0426 15.6588 14.2326 17.5128 12 17.5128C9.76736 17.5128 7.95745 15.6588 7.95745 13.3718Z" fill="#222222" style="fill:#222222;fill:color(display-p3 0.1345 0.1345 0.1345);fill-opacity:1;"/>
</svg>
