<svg width="26" height="26" viewBox="0 0 26 26" fill="none" xmlns="http://www.w3.org/2000/svg">
<path d="M4.88325 18.6136H21.1178C21.5689 18.6136 21.8246 17.9161 21.559 17.5164C20.944 16.591 20.3465 15.2268 20.3465 13.5817L20.373 11.3316C20.373 6.86826 17.072 3.25 13 3.25C8.9871 3.25 5.73402 6.81574 5.73402 11.2143L5.70758 13.5817C5.70758 15.2156 5.08879 16.5723 4.44768 17.4974C4.1714 17.8961 4.4265 18.6136 4.88325 18.6136Z" fill="#8CCC7D" style="fill:#8CCC7D;fill:color(display-p3 0.5509 0.8007 0.4896);fill-opacity:1;"/>
<path d="M10.1111 21.7651C10.8777 22.3776 11.8901 22.75 13 22.75C14.1098 22.75 15.1222 22.3776 15.8889 21.7651M4.88325 18.6136C4.4265 18.6136 4.1714 17.8961 4.44768 17.4974C5.08879 16.5723 5.70758 15.2156 5.70758 13.5817L5.73402 11.2143C5.73402 6.81574 8.9871 3.25 13 3.25C17.072 3.25 20.373 6.86826 20.373 11.3316L20.3465 13.5817C20.3465 15.2268 20.944 16.591 21.559 17.5164C21.8246 17.9161 21.5689 18.6136 21.1178 18.6136H4.88325Z" stroke="#8CCC7D" style="stroke:#8CCC7D;stroke:color(display-p3 0.5509 0.8007 0.4896);stroke-opacity:1;" stroke-width="1.73333" stroke-linecap="round" stroke-linejoin="round"/>
</svg>
