<svg xmlns="http://www.w3.org/2000/svg" width="19" height="20" viewBox="0 0 19 20" fill="none">
  <path d="M1.81525 15.1818H16.801C17.2173 15.1818 17.4534 14.5379 17.2083 14.169C16.6405 13.3147 16.089 12.0555 16.089 10.537L16.1135 8.45995C16.1135 4.33993 13.0664 1 9.30762 1C5.60342 1 2.60058 4.29145 2.60058 8.35166L2.57617 10.537C2.57617 12.0451 2.00498 13.2975 1.41319 14.1514C1.15816 14.5194 1.39364 15.1818 1.81525 15.1818Z" fill="#D2D6DB" style="fill:#D2D6DB;fill:color(display-p3 0.8235 0.8392 0.8588);fill-opacity:1;"/>
  <path d="M6.64095 18.0909C7.34863 18.6562 8.28314 19 9.30762 19C10.3321 19 11.2666 18.6562 11.9743 18.0909M1.81525 15.1818C1.39364 15.1818 1.15816 14.5194 1.41319 14.1514C2.00498 13.2975 2.57617 12.0451 2.57617 10.537L2.60058 8.35166C2.60058 4.29145 5.60342 1 9.30762 1C13.0664 1 16.1135 4.33993 16.1135 8.45995L16.089 10.537C16.089 12.0555 16.6405 13.3147 17.2083 14.169C17.4534 14.5379 17.2173 15.1818 16.801 15.1818H1.81525Z" stroke="#D2D6DB" style="stroke:#D2D6DB;stroke:color(display-p3 0.8235 0.8392 0.8588);stroke-opacity:1;" stroke-width="1.6" stroke-linecap="round" stroke-linejoin="round"/>
</svg>