<svg width="25" height="24" viewBox="0 0 25 24" fill="none" xmlns="http://www.w3.org/2000/svg">
<path d="M19.3333 3C20.4379 3 21.3333 3.88316 21.3333 4.9726L21.3333 8.33992C21.3333 9.42936 20.4379 10.3125 19.3333 10.3125H16.3333C15.2288 10.3125 14.3334 9.42936 14.3334 8.33992L14.3333 4.9726C14.3333 3.88316 15.2288 3 16.3333 3L19.3333 3Z" fill="#76C663" style="fill:#76C663;fill:color(display-p3 0.4635 0.7765 0.3901);fill-opacity:1;"/>
<path d="M5.33334 3C4.22877 3 3.33334 3.88316 3.33334 4.9726L3.33335 8.33992C3.33335 9.42936 4.22878 10.3125 5.33335 10.3125H8.33335C9.43792 10.3125 10.3334 9.42936 10.3334 8.33992L10.3333 4.9726C10.3333 3.88316 9.43791 3 8.33334 3L5.33334 3Z" fill="#76C663" style="fill:#76C663;fill:color(display-p3 0.4635 0.7765 0.3901);fill-opacity:1;"/>
<path d="M19.3334 13.6875C20.4379 13.6875 21.3333 14.5707 21.3333 15.6601V19.0274C21.3333 20.1168 20.4379 21 19.3334 21H16.3334C15.2288 21 14.3334 20.1168 14.3334 19.0274L14.3334 15.6601C14.3334 14.5707 15.2288 13.6875 16.3334 13.6875H19.3334Z" fill="#76C663" style="fill:#76C663;fill:color(display-p3 0.4635 0.7765 0.3901);fill-opacity:1;"/>
<path d="M5.33335 13.6875C4.22878 13.6875 3.33335 14.5707 3.33335 15.6601L3.33335 19.0274C3.33335 20.1168 4.22878 21 5.33335 21H8.33335C9.43792 21 10.3334 20.1168 10.3334 19.0274L10.3333 15.6601C10.3333 14.5707 9.43792 13.6875 8.33335 13.6875H5.33335Z" fill="#76C663" style="fill:#76C663;fill:color(display-p3 0.4635 0.7765 0.3901);fill-opacity:1;"/>
<path d="M19.3333 3C20.4379 3 21.3333 3.88316 21.3333 4.9726L21.3333 8.33992C21.3333 9.42936 20.4379 10.3125 19.3333 10.3125H16.3333C15.2288 10.3125 14.3334 9.42936 14.3334 8.33992L14.3333 4.9726C14.3333 3.88316 15.2288 3 16.3333 3L19.3333 3Z" stroke="#76C663" style="stroke:#76C663;stroke:color(display-p3 0.4635 0.7765 0.3901);stroke-opacity:1;" stroke-width="1.6" stroke-linecap="round" stroke-linejoin="round"/>
<path d="M5.33334 3C4.22877 3 3.33334 3.88316 3.33334 4.9726L3.33335 8.33992C3.33335 9.42936 4.22878 10.3125 5.33335 10.3125H8.33335C9.43792 10.3125 10.3334 9.42936 10.3334 8.33992L10.3333 4.9726C10.3333 3.88316 9.43791 3 8.33334 3L5.33334 3Z" stroke="#76C663" style="stroke:#76C663;stroke:color(display-p3 0.4635 0.7765 0.3901);stroke-opacity:1;" stroke-width="1.6" stroke-linecap="round" stroke-linejoin="round"/>
<path d="M19.3334 13.6875C20.4379 13.6875 21.3333 14.5707 21.3333 15.6601V19.0274C21.3333 20.1168 20.4379 21 19.3334 21H16.3334C15.2288 21 14.3334 20.1168 14.3334 19.0274L14.3334 15.6601C14.3334 14.5707 15.2288 13.6875 16.3334 13.6875H19.3334Z" stroke="#76C663" style="stroke:#76C663;stroke:color(display-p3 0.4635 0.7765 0.3901);stroke-opacity:1;" stroke-width="1.6" stroke-linecap="round" stroke-linejoin="round"/>
<path d="M5.33335 13.6875C4.22878 13.6875 3.33335 14.5707 3.33335 15.6601L3.33335 19.0274C3.33335 20.1168 4.22878 21 5.33335 21H8.33335C9.43792 21 10.3334 20.1168 10.3334 19.0274L10.3333 15.6601C10.3333 14.5707 9.43792 13.6875 8.33335 13.6875H5.33335Z" stroke="#76C663" style="stroke:#76C663;stroke:color(display-p3 0.4635 0.7765 0.3901);stroke-opacity:1;" stroke-width="1.6" stroke-linecap="round" stroke-linejoin="round"/>
</svg>
