<svg xmlns="http://www.w3.org/2000/svg" width="24" height="24" viewBox="0 0 24 24" fill="none">
  <path d="M20.4578 5.50292C19.9691 5.02645 19.3889 4.64848 18.7503 4.39061C18.1117 4.13273 17.4272 4 16.7359 4C16.0446 4 15.3601 4.13273 14.7215 4.39061C14.0829 4.64848 13.5026 5.02645 13.0139 5.50292L11.9997 6.49131L10.9855 5.50292C9.99842 4.54094 8.6596 4.0005 7.26361 4.0005C5.86761 4.0005 4.52879 4.54094 3.54168 5.50292C2.55456 6.46491 2 7.76964 2 9.1301C2 10.4906 2.55456 11.7953 3.54168 12.7573L11.9997 21L20.4578 12.7573C20.9467 12.281 21.3346 11.7156 21.5992 11.0932C21.8638 10.4708 22 9.80377 22 9.1301C22 8.45642 21.8638 7.78935 21.5992 7.16699C21.3346 6.54463 20.9467 5.97917 20.4578 5.50292Z" fill="#D2D6DB" stroke="#D2D6DB" style="fill:#D2D6DB;fill:color(display-p3 0.8235 0.8392 0.8588);fill-opacity:1;stroke:#D2D6DB;stroke:color(display-p3 0.8235 0.8392 0.8588);stroke-opacity:1;" stroke-width="1.43519" stroke-linecap="round" stroke-linejoin="round"/>
</svg>