<svg width="25" height="24" viewBox="0 0 25 24" fill="none" xmlns="http://www.w3.org/2000/svg">
<path d="M21.1248 5.50292C20.6361 5.02645 20.0559 4.64848 19.4173 4.39061C18.7786 4.13273 18.0941 4 17.4029 4C16.7116 4 16.0271 4.13273 15.3885 4.39061C14.7499 4.64848 14.1696 5.02645 13.6809 5.50292L12.6667 6.49131L11.6525 5.50292C10.6654 4.54094 9.3266 4.0005 7.9306 4.0005C6.53461 4.0005 5.19579 4.54094 4.20867 5.50292C3.22155 6.46491 2.66699 7.76964 2.66699 9.1301C2.66699 10.4906 3.22155 11.7953 4.20867 12.7573L12.6667 21L21.1248 12.7573C21.6137 12.281 22.0016 11.7156 22.2662 11.0932C22.5308 10.4708 22.667 9.80377 22.667 9.1301C22.667 8.45642 22.5308 7.78935 22.2662 7.16699C22.0016 6.54463 21.6137 5.97917 21.1248 5.50292Z" fill="#76C663" stroke="#76C663" style="fill:#76C663;fill:color(display-p3 0.4635 0.7765 0.3901);fill-opacity:1;stroke:#76C663;stroke:color(display-p3 0.4635 0.7765 0.3901);stroke-opacity:1;" stroke-width="1.43519" stroke-linecap="round" stroke-linejoin="round"/>
</svg>
