<svg width="21" height="24" viewBox="0 0 21 24" fill="none" xmlns="http://www.w3.org/2000/svg">
<path d="M7.21245 16.9035C4.18136 15.1535 3.63232 13.1045 3.63232 13.1045L1.63219 16.568C1.0799 17.5245 1.40772 18.7476 2.3643 19.2999L7.56045 22.2999C8.51704 22.8522 9.74022 22.5244 10.2925 21.5678L12.2926 18.1045C12.2926 18.1045 10.2435 18.6535 7.21245 16.9035Z" fill="#FDE0D5" style="fill:#FDE0D5;fill:color(display-p3 0.9924 0.8772 0.8353);fill-opacity:1;"/>
<path d="M3.63232 13.1045C3.63232 13.1045 4.18136 15.1535 7.21245 16.9035C10.2435 18.6535 12.2926 18.1045 12.2926 18.1045M3.63232 13.1045C4.05209 2.37719 10.4491 0.296302 14.3463 2.54634C18.2435 4.79638 18.5423 7.27829 17.7924 8.57739C17.0425 9.8765 15.2435 9.99253 15.7924 12.0415M3.63232 13.1045L1.63219 16.568C1.0799 17.5245 1.40772 18.7476 2.3643 19.2999L7.56045 22.2999C8.51704 22.8522 9.74022 22.5244 10.2925 21.5678L12.2926 18.1045M12.2926 18.1045C14.4085 16.4394 17.8236 15.5236 18.8236 13.7916C19.8236 12.0595 19.2746 10.0105 17.2924 9.44342" stroke="#EF9988" style="stroke:#EF9988;stroke:color(display-p3 0.9358 0.6019 0.5352);stroke-opacity:1;" stroke-width="1.5" stroke-linecap="round" stroke-linejoin="round"/>
</svg>
