<svg width="24" height="24" viewBox="0 0 24 24" fill="none" xmlns="http://www.w3.org/2000/svg">
<path d="M17.5038 11.1308L16.1297 12.4361L22 12C22.8485 12 23.3526 12.7504 23.4722 13.6012C23.508 13.8555 23.4012 14.1037 23.2241 14.2897L19.6497 18.043C19.0345 18.6273 18.2013 18.9571 17.3313 18.9605L7.43479 18.9999C6.29698 19.0089 5.15618 18.6012 4.28804 17.7765C2.57065 16.1453 2.57065 13.5005 4.28804 11.8692L11.2846 5.22345C13.002 3.59218 15.7864 3.59218 17.5038 5.22345C19.2212 6.85472 19.2212 9.49952 17.5038 11.1308Z" fill="#FFF8DA" style="fill:#FFF8DA;fill:color(display-p3 1.0000 0.9706 0.8531);fill-opacity:1;"/>
<path d="M10.1497 17.7766C8.51414 19.4078 5.86231 19.4078 4.2267 17.7766C2.5911 16.1453 2.5911 13.5005 4.2267 11.8692C5.86231 10.2379 8.51414 10.2379 10.1497 11.8692C11.7854 13.5005 11.7854 16.1453 10.1497 17.7766Z" fill="#FFF8DA" style="fill:#FFF8DA;fill:color(display-p3 1.0000 0.9725 0.8549);fill-opacity:1;"/>
<path d="M10.1497 17.7766L16.8132 11.1308C18.4488 9.49952 18.4488 6.85472 16.8132 5.22345C15.1776 3.59218 12.5257 3.59218 10.8901 5.22345L4.2267 11.8692M10.1497 17.7766C8.51414 19.4078 5.86231 19.4078 4.2267 17.7766C2.5911 16.1453 2.5911 13.5005 4.2267 11.8692M10.1497 17.7766C11.7854 16.1453 11.7854 13.5005 10.1497 11.8692C8.51414 10.2379 5.86231 10.2379 4.2267 11.8692M7.18823 19L16.6489 18.9605C17.4774 18.9571 18.271 18.6273 18.8569 18.043L22.6912 14.2188C23.3508 13.5609 22.8837 12.4361 21.9508 12.4361H15.5044" stroke="#F2D667" style="stroke:#F2D667;stroke:color(display-p3 0.9506 0.8410 0.4026);stroke-opacity:1;" stroke-width="1.5" stroke-linecap="round" stroke-linejoin="round"/>
</svg>
