<svg width="24" height="24" viewBox="0 0 24 24" fill="none" xmlns="http://www.w3.org/2000/svg">
<path d="M5.2684 13.371C5.68817 2.64368 12.0852 0.562786 15.9824 2.81282C19.8796 5.06286 20.5403 7.44195 19.4688 8.65185C18.3972 9.86175 22 11.268 21 13C20 14.732 16.0445 16.7058 13.9287 18.371L11.9286 21.8343C11.3763 22.7909 10.1531 23.1187 9.19653 22.5664L4.00038 19.5664C3.0438 19.0141 2.71598 17.791 3.26827 16.8344L5.2684 13.371Z" fill="#FDE0D5" style="fill:#FDE0D5;fill:color(display-p3 0.9922 0.8784 0.8353);fill-opacity:1;"/>
<path d="M9.21245 16.9035C6.18136 15.1535 5.63232 13.1045 5.63232 13.1045L3.63219 16.568C3.07991 17.5245 3.40772 18.7476 4.36431 19.2999L9.56046 22.2999C10.517 22.8522 11.7402 22.5244 12.2925 21.5678L14.2926 18.1045C14.2926 18.1045 12.2435 18.6535 9.21245 16.9035Z" fill="#FDE0D5" style="fill:#FDE0D5;fill:color(display-p3 0.9924 0.8772 0.8353);fill-opacity:1;"/>
<path d="M5.63232 13.1045C5.63232 13.1045 6.18136 15.1535 9.21245 16.9035C12.2435 18.6535 14.2926 18.1045 14.2926 18.1045M5.63232 13.1045C6.0521 2.3772 12.4491 0.296306 16.3463 2.54635C20.2435 4.79638 20.5423 7.27829 19.7924 8.5774C19.0425 9.8765 17.2435 9.99254 17.7924 12.0415M5.63232 13.1045L3.63219 16.568C3.07991 17.5245 3.40772 18.7476 4.36431 19.2999L9.56046 22.2999C10.517 22.8522 11.7402 22.5244 12.2925 21.5678L14.2926 18.1045M14.2926 18.1045C16.4085 16.4394 19.8236 15.5236 20.8236 13.7916C21.8236 12.0595 21.2746 10.0105 19.2924 9.44342" stroke="#EF9988" style="stroke:#EF9988;stroke:color(display-p3 0.9358 0.6019 0.5352);stroke-opacity:1;" stroke-width="1.5" stroke-linecap="round" stroke-linejoin="round"/>
</svg>
