<svg width="24" height="24" viewBox="0 0 24 24" fill="none" xmlns="http://www.w3.org/2000/svg">
<path d="M2.13268 13.2197C1.76433 12.6058 2.20655 11.8247 2.92248 11.8247H4.66894C5.38488 11.8247 5.82709 12.6058 5.45875 13.2197C5.02948 13.9351 4.85576 14.7751 4.96603 15.6021L5.53139 19.8423C5.67135 20.892 4.85472 21.8247 3.79571 21.8247C2.73671 21.8247 1.92008 20.892 2.06004 19.8423L2.62539 15.6021C2.73566 14.7751 2.56195 13.9351 2.13268 13.2197Z" fill="#E9F4E6" style="fill:#E9F4E6;fill:color(display-p3 0.9137 0.9569 0.9020);fill-opacity:1;"/>
<path d="M18.1327 13.2197C17.7643 12.6058 18.2065 11.8247 18.9225 11.8247H20.6689C21.3849 11.8247 21.8271 12.6058 21.4587 13.2197C21.0295 13.9351 20.8558 14.7751 20.966 15.6021L21.5314 19.8423C21.6713 20.892 20.8547 21.8247 19.7957 21.8247C18.7367 21.8247 17.9201 20.892 18.06 19.8423L18.6254 15.6021C18.7357 14.7751 18.562 13.9351 18.1327 13.2197Z" fill="#E9F4E6" style="fill:#E9F4E6;fill:color(display-p3 0.9137 0.9569 0.9020);fill-opacity:1;"/>
<path d="M3.83316 11.1005V7.61952C3.83316 4.90601 5.79409 2.57709 8.46383 2.09168C9.72451 1.86247 10.9522 2.07393 12 2.60642M20.1668 11.1005V7.61952C20.1668 4.90601 18.2059 2.57709 15.5362 2.09168C14.2755 1.86247 13.0478 2.07393 12 2.60642M12 2.60642C10.2046 3.51884 8.93744 5.37379 8.93744 7.56934V10.0796C8.93744 11.771 10.3086 13.1422 12 13.1422C13.6914 13.1422 15.0626 11.771 15.0626 10.0796V7.56934C15.0626 5.37379 13.7954 3.51884 12 2.60642ZM5.53088 12.5245C5.09266 13.2549 4.91532 14.1124 5.02789 14.9566L5.60503 19.2852C5.74791 20.3568 4.91425 21.309 3.83316 21.309C2.75207 21.309 1.91841 20.3568 2.06129 19.2852L2.63844 14.9566C2.75101 14.1124 2.57367 13.2549 2.13545 12.5245C1.75942 11.8978 2.21086 11.1005 2.94172 11.1005H4.7246C5.45547 11.1005 5.90691 11.8978 5.53088 12.5245ZM21.8646 12.5245C21.4263 13.2549 21.249 14.1124 21.3616 14.9566L21.9387 19.2852C22.0816 20.3568 21.2479 21.309 20.1668 21.309C19.0857 21.309 18.2521 20.3568 18.395 19.2852L18.9721 14.9566C19.0847 14.1124 18.9073 13.2549 18.4691 12.5245C18.0931 11.8978 18.5445 11.1005 19.2754 11.1005H21.0583C21.7891 11.1005 22.2406 11.8978 21.8646 12.5245Z" stroke="#8CCC7D" style="stroke:#8CCC7D;stroke:color(display-p3 0.5509 0.8007 0.4896);stroke-opacity:1;" stroke-width="1.5" stroke-linecap="round" stroke-linejoin="round"/>
</svg>
