<svg width="24" height="24" viewBox="0 0 24 24" fill="none" xmlns="http://www.w3.org/2000/svg">
<path d="M18 13.6171C15.525 17.9039 10.8894 19.0381 7.20659 16.9118C3.52375 14.7855 2.18819 10.2039 4.66319 5.91708C7.1382 1.63025 11.7737 0.496076 15.4566 2.62237C19.1394 4.74866 20.475 9.33025 18 13.6171Z" fill="#FDE0D5" style="fill:#FDE0D5;fill:color(display-p3 0.9922 0.8784 0.8353);fill-opacity:1;"/>
<path d="M6.29158 16.2966L8.08498 17.3502L5.88553 22.4999L3.02765 20.8499L6.29158 16.2966Z" fill="#FDE0D5" style="fill:#FDE0D5;fill:color(display-p3 0.9922 0.8784 0.8353);fill-opacity:1;"/>
<path d="M21 19.9999C21 21.1045 20.1046 21.9999 19 21.9999C17.8954 21.9999 17 21.1045 17 19.9999C17 18.8954 17.8954 17.9999 19 17.9999C20.1046 17.9999 21 18.8954 21 19.9999Z" fill="#FDE0D5" style="fill:#FDE0D5;fill:color(display-p3 0.9922 0.8784 0.8353);fill-opacity:1;"/>
<path d="M3.40248 10.3007L14.834 16.9007M18 13.6171C15.525 17.9039 10.8894 19.0381 7.20659 16.9118C3.52375 14.7855 2.18819 10.2039 4.66319 5.91708C7.13819 1.63025 11.7737 0.496076 15.4566 2.62237C19.1394 4.74866 20.475 9.33025 18 13.6171ZM6.29158 16.2966L8.08498 17.3502L5.88553 22.4999L3.02765 20.8499L6.29158 16.2966ZM21 19.9999C21 21.1045 20.1046 21.9999 19 21.9999C17.8954 21.9999 17 21.1045 17 19.9999C17 18.8954 17.8954 17.9999 19 17.9999C20.1046 17.9999 21 18.8954 21 19.9999Z" stroke="#EF9988" style="stroke:#EF9988;stroke:color(display-p3 0.9358 0.6019 0.5352);stroke-opacity:1;" stroke-width="1.5" stroke-linejoin="round"/>
</svg>
