<svg width="24" height="24" viewBox="0 0 24 24" fill="none" xmlns="http://www.w3.org/2000/svg">
<path d="M15.5 5.5C15.5 7.433 13.933 9 12 9C10.067 9 8.5 7.433 8.5 5.5C8.5 3.567 10.067 2 12 2C13.933 2 15.5 3.567 15.5 5.5Z" stroke="#BBBBBB" style="stroke:#BBBBBB;stroke:color(display-p3 0.7333 0.7333 0.7333);stroke-opacity:1;" stroke-width="1.5" stroke-linecap="round" stroke-linejoin="round"/>
<path d="M4.32936 12.8063C4.4723 12.2728 5.02064 11.9563 5.55411 12.0992L7.48596 12.6168C8.01942 12.7598 8.33601 13.3081 8.19307 13.8416L6.12251 21.569C5.97957 22.1025 5.43123 22.419 4.89777 22.2761L2.96592 21.7585C2.43245 21.6155 2.11587 21.0672 2.25881 20.5337L4.32936 12.8063Z" fill="#EAEAEA" style="fill:#EAEAEA;fill:color(display-p3 0.9188 0.9188 0.9188);fill-opacity:1;"/>
<path d="M19.6226 12.931C19.4796 12.3975 18.9313 12.0809 18.3978 12.2238L16.466 12.7415C15.9325 12.8844 15.6159 13.4328 15.7589 13.9662L17.8294 21.6936C17.9724 22.2271 18.5207 22.5437 19.0542 22.4007L20.986 21.8831C21.5195 21.7402 21.8361 21.1918 21.6931 20.6584L19.6226 12.931Z" fill="#EAEAEA" style="fill:#EAEAEA;fill:color(display-p3 0.9188 0.9188 0.9188);fill-opacity:1;"/>
<path d="M15.5 5L17.4355 12.355M8.5 5L6.56448 12.355M2.96592 21.7585L4.89777 22.2761C5.43123 22.419 5.97957 22.1025 6.12251 21.569L8.19307 13.8416C8.33601 13.3081 8.01942 12.7598 7.48596 12.6168L5.55411 12.0992C5.02064 11.9563 4.4723 12.2728 4.32936 12.8063L2.25881 20.5337C2.11587 21.0672 2.43245 21.6155 2.96592 21.7585ZM20.986 21.8831L19.0542 22.4007C18.5207 22.5437 17.9724 22.2271 17.8294 21.6936L15.7589 13.9662C15.6159 13.4328 15.9325 12.8844 16.466 12.7415L18.3978 12.2238C18.9313 12.0809 19.4796 12.3975 19.6226 12.931L21.6931 20.6584C21.8361 21.1918 21.5195 21.7402 20.986 21.8831Z" stroke="#BBBBBB" style="stroke:#BBBBBB;stroke:color(display-p3 0.7333 0.7333 0.7333);stroke-opacity:1;" stroke-width="1.5" stroke-linecap="round" stroke-linejoin="round"/>
</svg>
