<svg width="24" height="24" viewBox="0 0 24 24" fill="none" xmlns="http://www.w3.org/2000/svg">
<path d="M18.5633 16C18.5202 16.1725 17.8892 16.3191 17.7265 16.3403C17.4611 16.3749 17.4856 15.8768 17.5425 15.7153C17.6597 15.3826 18.0373 15.3194 18.3446 15.3194C19.2853 15.3194 20.0982 16.036 19.9106 17.0139C19.8099 17.5385 19.2391 18.3536 18.6397 18.375C18.2728 18.3881 17.9013 18.5 17.5321 18.5C17.2351 18.5 17.3133 18.3384 17.3133 18.0764C17.3133 18.0145 17.4682 17.259 17.612 17.5625C17.8994 18.1694 17.1322 18.94 18.0008 19.2778C18.4699 19.4602 19.1945 19.2511 19.487 18.8611C19.7478 18.5133 19.7036 17.7088 19.6849 17.316C19.6631 16.8594 19.4739 16.4413 19.3758 16C19.2023 15.2192 18.9558 14.379 18.9383 13.5764C18.9245 12.9383 18.7723 12.2759 18.0078 12.191C17.2461 12.1063 17.0198 13.373 17.0008 13.9236C16.9548 15.2579 18.7919 14.8068 19.5946 14.6285C19.7327 14.5978 19.8758 14.6295 20.0008 14.6736C20.0537 14.6923 19.7677 13.6524 19.6883 13.5278C19.2555 12.8475 19.3295 12.2111 18.9383 11.5C18.5424 10.78 17.537 10.2772 17.7022 9.38889C17.8029 8.84795 18.4071 8.23694 18.4071 7.65278C18.4071 7.26427 18.3446 6.88539 18.3446 6.5C18.3446 6.16173 18.1077 6.28632 18.2508 6" stroke="#FFF7DA" style="stroke:#FFF7DA;stroke:color(display-p3 1.0000 0.9686 0.8549);stroke-opacity:1;" stroke-width="3" stroke-linecap="round"/>
<path d="M5.56337 16C5.52026 16.1725 4.88922 16.3191 4.72657 16.3403C4.46112 16.3749 4.48566 15.8768 4.54254 15.7153C4.65969 15.3826 5.0373 15.3194 5.34462 15.3194C6.28528 15.3194 7.09827 16.036 6.9106 17.0139C6.80992 17.5385 6.23913 18.3536 5.63976 18.375C5.2728 18.3881 4.90129 18.5 4.53212 18.5C4.23515 18.5 4.31337 18.3384 4.31337 18.0764C4.31337 18.0145 2.90225 17.1965 3.04599 17.5C3.33344 18.1069 4.13223 18.94 5.00087 19.2778C5.46993 19.4602 6.19451 19.2511 6.48698 18.8611C6.74783 18.5133 6.70361 17.7088 6.6849 17.316C6.66316 16.8594 6.47395 16.4413 6.37587 16C6.20237 15.2192 5.95582 14.379 5.93837 13.5764C5.9245 12.9383 5.77237 12.2759 5.00782 12.191C4.24613 12.1063 3.065 14.0879 3.04601 14.6384C3 15.9727 4.83711 15.5216 5.63976 15.3433C5.7779 15.3126 6.87581 14.6295 7.00087 14.6736C7.05375 14.6923 6.76768 13.6524 6.68837 13.5278C6.25549 12.8475 6.39111 12.2111 6 11.5C5.604 10.78 4.537 10.2772 4.70226 9.38889C4.8029 8.84795 5.12587 8.48694 5.12587 7.90278C5.12587 7.51427 5.56337 6.88539 5.56337 6.5C5.56337 6.16173 5.10771 6.28632 5.25087 6" stroke="#FFF7DA" style="stroke:#FFF7DA;stroke:color(display-p3 1.0000 0.9686 0.8549);stroke-opacity:1;" stroke-width="3" stroke-linecap="round"/>
<path d="M12 2C10.7497 1.99997 10 3 10 4.5C10 4.93595 10.0845 5.32966 10.2043 5.66886C10.51 6.53419 10.6709 7.55147 10.2519 8.36797C9.36334 10.0994 8 13.1406 8 15.5C8 19 10 21.7855 10 21.7855H14C14 21.7855 16 19 16 15.5C16 13.1406 14.6367 10.0994 13.7481 8.36797C13.3291 7.55147 13.49 6.53419 13.7957 5.66886C13.9155 5.32966 14 4.93595 14 4.5C14 3 13.2503 2.00003 12 2Z" fill="#FFF7DA" style="fill:#FFF7DA;fill:color(display-p3 1.0000 0.9686 0.8549);fill-opacity:1;"/>
<path d="M4 10H7M8.52443 18.7135C8.08509 20.089 7.5 20.7855 7.5 20.7855H3.5C3.5 20.7855 2 19 2 15.5C2 13.5319 2.79047 11.722 3.48244 10.5146C3.99678 9.61709 3.89878 8.41349 3.62497 7.41598C3.54886 7.13868 3.5 6.83156 3.5 6.5C3.5 5 4.24975 3.99997 5.50005 4C6.75032 4.00003 7.5 5 7.5 6.5C7.5 6.83156 7.45114 7.13868 7.37503 7.41598C7.10122 8.41349 7.00322 9.61709 7.51756 10.5146C7.8147 11.033 8.13 11.6626 8.39308 12.3681M20 10H17M15.4756 18.7135C15.9149 20.089 16.5 20.7855 16.5 20.7855H20.5C20.5 20.7855 22 19 22 15.5C22 13.5319 21.2095 11.722 20.5176 10.5146C20.0032 9.61709 20.1012 8.41349 20.375 7.41598C20.4511 7.13868 20.5 6.83156 20.5 6.5C20.5 5 19.7503 3.99997 18.5 4C17.2497 4.00003 16.5 5 16.5 6.5C16.5 6.83156 16.5489 7.13868 16.625 7.41598C16.8988 8.41349 16.9968 9.61709 16.4824 10.5146C16.1853 11.033 15.87 11.6626 15.6069 12.3681M10.5 8.5H13.5M10 4.5C10 3 10.7497 1.99997 12 2C13.2503 2.00003 14 3 14 4.5C14 4.93595 13.9155 5.32966 13.7957 5.66886C13.49 6.53419 13.3291 7.55147 13.7481 8.36797C14.6367 10.0994 16 13.1406 16 15.5C16 19 14 21.7855 14 21.7855H10C10 21.7855 8 19 8 15.5C8 13.1406 9.36334 10.0994 10.2519 8.36797C10.6709 7.55147 10.51 6.53419 10.2043 5.66886C10.0845 5.32966 10 4.93595 10 4.5Z" stroke="#F2D667" style="stroke:#F2D667;stroke:color(display-p3 0.9490 0.8392 0.4039);stroke-opacity:1;" stroke-width="1.5" stroke-linecap="round" stroke-linejoin="round"/>
</svg>
