<svg width="24" height="24" viewBox="0 0 24 24" fill="none" xmlns="http://www.w3.org/2000/svg">
<path d="M19 20C20.6569 20 22 18.6569 22 17C22 15.3431 20.6569 14 19 14L3.86986 15.78C2.80359 15.9055 2 16.8091 2 17.8828C2 19.0521 2.94792 20 4.11724 20H19Z" fill="#DFDBFF" stroke="#A99CFF" style="fill:#DFDBFF;fill:color(display-p3 0.8745 0.8588 1.0000);fill-opacity:1;stroke:#A99CFF;stroke:color(display-p3 0.6634 0.6117 1.0000);stroke-opacity:1;" stroke-width="1.5" stroke-linecap="round" stroke-linejoin="round"/>
<path d="M22 17C22 18.6569 20.6569 20 19 20C17.3431 20 16 18.6569 16 17C16 15.3431 17.3431 14 19 14C20.6569 14 22 15.3431 22 17Z" fill="#DFDBFF" style="fill:#DFDBFF;fill:color(display-p3 0.8761 0.8570 1.0000);fill-opacity:1;"/>
<path d="M19.5 17C19.5 16.7239 19.2761 16.5 19 16.5C18.7239 16.5 18.5 16.7239 18.5 17C18.5 17.2761 18.7239 17.5 19 17.5C19.2761 17.5 19.5 17.2761 19.5 17Z" fill="#DFDBFF" style="fill:#DFDBFF;fill:color(display-p3 0.8761 0.8570 1.0000);fill-opacity:1;"/>
<path d="M19 20C20.6569 20 22 18.6569 22 17C22 15.3431 20.6569 14 19 14M19 20C17.3431 20 16 18.6569 16 17C16 15.3431 17.3431 14 19 14M19 20H4.11724C2.94792 20 2 19.0521 2 17.8828C2 16.8091 2.80359 15.9055 3.86986 15.78L19 14M19 14L16 5M19 2L13.643 6.86997C13.551 6.95364 13.4311 7 13.3067 7H9.5M19.5 17C19.5 16.7239 19.2761 16.5 19 16.5C18.7239 16.5 18.5 16.7239 18.5 17M19.5 17C19.5 17.2761 19.2761 17.5 19 17.5C18.7239 17.5 18.5 17.2761 18.5 17M19.5 17H18.5" stroke="#A99CFF" style="stroke:#A99CFF;stroke:color(display-p3 0.6634 0.6117 1.0000);stroke-opacity:1;" stroke-width="1.5" stroke-linecap="round" stroke-linejoin="round"/>
</svg>
