<svg width="20" height="20" viewBox="0 0 20 20" fill="none" xmlns="http://www.w3.org/2000/svg">
<path fill-rule="evenodd" clip-rule="evenodd" d="M4.99992 9.99999C4.99992 10.4602 4.62682 10.8333 4.16659 10.8333C3.70635 10.8333 3.33325 10.4602 3.33325 9.99999C3.33325 9.53975 3.70635 9.16666 4.16659 9.16666C4.62682 9.16666 4.99992 9.53975 4.99992 9.99999ZM9.99992 10.8333C10.4602 10.8333 10.8333 10.4602 10.8333 9.99999C10.8333 9.53975 10.4602 9.16666 9.99992 9.16666C9.53968 9.16666 9.16659 9.53975 9.16659 9.99999C9.16659 10.4602 9.53968 10.8333 9.99992 10.8333ZM15.8333 10.8333C16.2935 10.8333 16.6666 10.4602 16.6666 9.99999C16.6666 9.53975 16.2935 9.16666 15.8333 9.16666C15.373 9.16666 14.9999 9.53975 14.9999 9.99999C14.9999 10.4602 15.373 10.8333 15.8333 10.8333Z" fill="#222222" style="fill:#222222;fill:color(display-p3 0.1333 0.1333 0.1333);fill-opacity:1;"/>
<path d="M4.16659 11.4583C4.972 11.4583 5.62492 10.8054 5.62492 9.99999H4.37492C4.37492 10.115 4.28164 10.2083 4.16659 10.2083V11.4583ZM2.70825 9.99999C2.70825 10.8054 3.36117 11.4583 4.16659 11.4583V10.2083C4.05153 10.2083 3.95825 10.115 3.95825 9.99999H2.70825ZM4.16659 8.54166C3.36117 8.54166 2.70825 9.19457 2.70825 9.99999H3.95825C3.95825 9.88493 4.05153 9.79166 4.16659 9.79166V8.54166ZM5.62492 9.99999C5.62492 9.19457 4.972 8.54166 4.16659 8.54166V9.79166C4.28164 9.79166 4.37492 9.88493 4.37492 9.99999H5.62492ZM10.2083 9.99999C10.2083 10.115 10.115 10.2083 9.99992 10.2083V11.4583C10.8053 11.4583 11.4583 10.8054 11.4583 9.99999H10.2083ZM9.99992 9.79166C10.115 9.79166 10.2083 9.88493 10.2083 9.99999H11.4583C11.4583 9.19457 10.8053 8.54166 9.99992 8.54166V9.79166ZM9.79159 9.99999C9.79159 9.88493 9.88486 9.79166 9.99992 9.79166V8.54166C9.1945 8.54166 8.54159 9.19457 8.54159 9.99999H9.79159ZM9.99992 10.2083C9.88486 10.2083 9.79159 10.115 9.79159 9.99999H8.54159C8.54159 10.8054 9.1945 11.4583 9.99992 11.4583V10.2083ZM16.0416 9.99999C16.0416 10.115 15.9483 10.2083 15.8333 10.2083V11.4583C16.6387 11.4583 17.2916 10.8054 17.2916 9.99999H16.0416ZM15.8333 9.79166C15.9483 9.79166 16.0416 9.88493 16.0416 9.99999H17.2916C17.2916 9.19457 16.6387 8.54166 15.8333 8.54166V9.79166ZM15.6249 9.99999C15.6249 9.88493 15.7182 9.79166 15.8333 9.79166V8.54166C15.0278 8.54166 14.3749 9.19457 14.3749 9.99999H15.6249ZM15.8333 10.2083C15.7182 10.2083 15.6249 10.115 15.6249 9.99999H14.3749C14.3749 10.8054 15.0278 11.4583 15.8333 11.4583V10.2083Z" fill="#222222" style="fill:#222222;fill:color(display-p3 0.1333 0.1333 0.1333);fill-opacity:1;"/>
</svg>
