<svg width="20" height="20" viewBox="0 0 20 20" fill="none" xmlns="http://www.w3.org/2000/svg">
<path fill-rule="evenodd" clip-rule="evenodd" d="M3.125 9.16667C3.125 5.82995 5.82995 3.125 9.16667 3.125C12.5034 3.125 15.2083 5.82995 15.2083 9.16667C15.2083 10.8004 14.5599 12.2827 13.5063 13.3702C13.4807 13.3889 13.4562 13.4098 13.4331 13.433C13.4099 13.4561 13.389 13.4806 13.3703 13.5062C12.2828 14.5598 10.8004 15.2083 9.16667 15.2083C5.82995 15.2083 3.125 12.5034 3.125 9.16667ZM13.8619 14.7457C12.5934 15.8144 10.9552 16.4583 9.16667 16.4583C5.13959 16.4583 1.875 13.1937 1.875 9.16667C1.875 5.13959 5.13959 1.875 9.16667 1.875C13.1937 1.875 16.4583 5.13959 16.4583 9.16667C16.4583 10.9552 15.8144 12.5933 14.7458 13.8618L17.942 17.058C18.186 17.3021 18.186 17.6978 17.942 17.9419C17.6979 18.1859 17.3022 18.1859 17.0581 17.9419L13.8619 14.7457Z" fill="#222222" style="fill:#222222;fill:color(display-p3 0.1333 0.1333 0.1333);fill-opacity:1;"/>
</svg>
