<svg width="20" height="20" viewBox="0 0 20 20" fill="none" xmlns="http://www.w3.org/2000/svg">
<path fill-rule="evenodd" clip-rule="evenodd" d="M5.20833 7.08333C5.20833 6.0478 6.0478 5.20833 7.08333 5.20833C8.11887 5.20833 8.95833 6.0478 8.95833 7.08333C8.95833 8.11887 8.11887 8.95833 7.08333 8.95833C6.0478 8.95833 5.20833 8.11887 5.20833 7.08333ZM7.08333 6.45833C6.73816 6.45833 6.45833 6.73816 6.45833 7.08333C6.45833 7.42851 6.73816 7.70833 7.08333 7.70833C7.42851 7.70833 7.70833 7.42851 7.70833 7.08333C7.70833 6.73816 7.42851 6.45833 7.08333 6.45833Z" fill="#222222" style="fill:#222222;fill:color(display-p3 0.1333 0.1333 0.1333);fill-opacity:1;"/>
<path fill-rule="evenodd" clip-rule="evenodd" d="M18.125 4.16667C18.125 2.90101 17.099 1.875 15.8333 1.875H4.16667C2.90101 1.875 1.875 2.90101 1.875 4.16667V15.8333C1.875 17.099 2.90101 18.125 4.16667 18.125H15.8333C17.099 18.125 18.125 17.099 18.125 15.8333V4.16667ZM4.16667 3.125C3.59137 3.125 3.125 3.59137 3.125 4.16667V15.8333C3.125 16.3286 3.47065 16.7432 3.93389 16.8489L12.8914 7.89139C13.1355 7.64731 13.5312 7.64731 13.7753 7.89139L16.875 10.9911V4.16667C16.875 3.59137 16.4086 3.125 15.8333 3.125H4.16667ZM16.875 12.7589L13.3333 9.21722L5.67555 16.875H15.8333C16.4086 16.875 16.875 16.4086 16.875 15.8333V12.7589Z" fill="#222222" style="fill:#222222;fill:color(display-p3 0.1333 0.1333 0.1333);fill-opacity:1;"/>
</svg>
