<svg width="20" height="20" viewBox="0 0 20 20" fill="none" xmlns="http://www.w3.org/2000/svg">
<path fill-rule="evenodd" clip-rule="evenodd" d="M10.0001 5.00001C10.4603 5.00001 10.8334 4.62691 10.8334 4.16668C10.8334 3.70644 10.4603 3.33334 10.0001 3.33334C9.53984 3.33334 9.16675 3.70644 9.16675 4.16668C9.16675 4.62691 9.53984 5.00001 10.0001 5.00001ZM10.0001 10.8333C10.4603 10.8333 10.8334 10.4602 10.8334 10C10.8334 9.53977 10.4603 9.16668 10.0001 9.16668C9.53984 9.16668 9.16675 9.53977 9.16675 10C9.16675 10.4602 9.53984 10.8333 10.0001 10.8333ZM10.8334 15.8333C10.8334 16.2936 10.4603 16.6667 10.0001 16.6667C9.53984 16.6667 9.16675 16.2936 9.16675 15.8333C9.16675 15.3731 9.53984 15 10.0001 15C10.4603 15 10.8334 15.3731 10.8334 15.8333Z" fill="#222222" style="fill:#222222;fill:color(display-p3 0.1333 0.1333 0.1333);fill-opacity:1;"/>
<path d="M10.2084 4.16668C10.2084 4.28174 10.1151 4.37501 10.0001 4.37501V5.62501C10.8055 5.62501 11.4584 4.97209 11.4584 4.16668H10.2084ZM10.0001 3.95834C10.1151 3.95834 10.2084 4.05162 10.2084 4.16668H11.4584C11.4584 3.36126 10.8055 2.70834 10.0001 2.70834V3.95834ZM9.79175 4.16668C9.79175 4.05162 9.88502 3.95834 10.0001 3.95834V2.70834C9.19467 2.70834 8.54175 3.36126 8.54175 4.16668H9.79175ZM10.0001 4.37501C9.88502 4.37501 9.79175 4.28174 9.79175 4.16668H8.54175C8.54175 4.97209 9.19467 5.62501 10.0001 5.62501V4.37501ZM10.2084 10C10.2084 10.1151 10.1151 10.2083 10.0001 10.2083V11.4583C10.8055 11.4583 11.4584 10.8054 11.4584 10H10.2084ZM10.0001 9.79168C10.1151 9.79168 10.2084 9.88495 10.2084 10H11.4584C11.4584 9.1946 10.8055 8.54168 10.0001 8.54168V9.79168ZM9.79175 10C9.79175 9.88495 9.88502 9.79168 10.0001 9.79168V8.54168C9.19467 8.54168 8.54175 9.1946 8.54175 10H9.79175ZM10.0001 10.2083C9.88502 10.2083 9.79175 10.1151 9.79175 10H8.54175C8.54175 10.8054 9.19467 11.4583 10.0001 11.4583V10.2083ZM10.0001 17.2917C10.8055 17.2917 11.4584 16.6388 11.4584 15.8333H10.2084C10.2084 15.9484 10.1151 16.0417 10.0001 16.0417V17.2917ZM8.54175 15.8333C8.54175 16.6388 9.19466 17.2917 10.0001 17.2917V16.0417C9.88502 16.0417 9.79175 15.9484 9.79175 15.8333H8.54175ZM10.0001 14.375C9.19467 14.375 8.54175 15.0279 8.54175 15.8333H9.79175C9.79175 15.7183 9.88502 15.625 10.0001 15.625V14.375ZM11.4584 15.8333C11.4584 15.0279 10.8055 14.375 10.0001 14.375V15.625C10.1151 15.625 10.2084 15.7183 10.2084 15.8333H11.4584Z" fill="#222222" style="fill:#222222;fill:color(display-p3 0.1333 0.1333 0.1333);fill-opacity:1;"/>
</svg>
