<svg width="20" height="20" viewBox="0 0 20 20" fill="none" xmlns="http://www.w3.org/2000/svg">
<path fill-rule="evenodd" clip-rule="evenodd" d="M13.1872 12.1158C13.2575 12.1862 13.3133 12.2697 13.3514 12.3616C13.3895 12.4535 13.4091 12.552 13.4091 12.6514C13.4091 12.7509 13.3895 12.8494 13.3514 12.9413C13.3133 13.0332 13.2575 13.1167 13.1872 13.1871C13.1169 13.2574 13.0334 13.3132 12.9415 13.3512C12.8496 13.3893 12.7511 13.4089 12.6516 13.4089C12.5521 13.4089 12.4536 13.3893 12.3617 13.3512C12.2698 13.3132 12.1863 13.2574 12.116 13.1871L10.0001 11.0711L7.88417 13.1871C7.81398 13.2576 7.73053 13.3137 7.63861 13.3519C7.54669 13.3901 7.44812 13.4098 7.34857 13.4098C7.24901 13.4098 7.15045 13.3901 7.05853 13.3519C6.96661 13.3137 6.88315 13.2576 6.81296 13.1871C6.74255 13.1168 6.68669 13.0333 6.64857 12.9414C6.61046 12.8495 6.59084 12.7509 6.59084 12.6514C6.59084 12.5519 6.61046 12.4534 6.64857 12.3615C6.68669 12.2696 6.74255 12.1861 6.81296 12.1158L8.92887 9.99993L6.81296 7.88402C6.74262 7.81368 6.68683 7.73018 6.64876 7.63828C6.6107 7.54638 6.5911 7.44789 6.5911 7.34841C6.5911 7.24894 6.6107 7.15044 6.64876 7.05855C6.68683 6.96665 6.74262 6.88314 6.81296 6.81281C6.8833 6.74247 6.9668 6.68668 7.0587 6.64861C7.1506 6.61054 7.24909 6.59095 7.34857 6.59095C7.44804 6.59095 7.54653 6.61054 7.63843 6.64861C7.73033 6.68668 7.81384 6.74247 7.88417 6.81281L10.0001 8.92872L12.116 6.81281C12.1863 6.74247 12.2698 6.68668 12.3617 6.64861C12.4536 6.61054 12.5521 6.59095 12.6516 6.59095C12.7511 6.59095 12.8496 6.61054 12.9415 6.64861C13.0334 6.68668 13.1169 6.74247 13.1872 6.81281C13.2575 6.88314 13.3133 6.96665 13.3514 7.05855C13.3895 7.15044 13.4091 7.24894 13.4091 7.34841C13.4091 7.44789 13.3895 7.54638 13.3514 7.63828C13.3133 7.73018 13.2575 7.81368 13.1872 7.88402L11.0713 9.99993L13.1872 12.1158ZM10.0001 1.6666C5.39781 1.6666 1.66675 5.39766 1.66675 9.99993C1.66675 14.6022 5.39781 18.3333 10.0001 18.3333C14.6024 18.3333 18.3334 14.6022 18.3334 9.99993C18.3334 5.39766 14.6024 1.6666 10.0001 1.6666Z" fill="#E2E3E5" style="fill:#E2E3E5;fill:color(display-p3 0.8863 0.8902 0.8980);fill-opacity:1;"/>
</svg>
