<svg width="20" height="20" viewBox="0 0 20 20" fill="none" xmlns="http://www.w3.org/2000/svg">
<path fill-rule="evenodd" clip-rule="evenodd" d="M10.0001 2.82945C6.0399 2.82945 2.82954 6.03981 2.82954 9.99999C2.82954 13.9602 6.0399 17.1705 10.0001 17.1705C13.9603 17.1705 17.1706 13.9602 17.1706 9.99999C17.1706 6.03981 13.9603 2.82945 10.0001 2.82945ZM1.66675 9.99999C1.66675 5.39762 5.39771 1.66666 10.0001 1.66666C14.6025 1.66666 18.3334 5.39762 18.3334 9.99999C18.3334 14.6024 14.6025 18.3333 10.0001 18.3333C5.39771 18.3333 1.66675 14.6024 1.66675 9.99999ZM10.0001 6.31782C10.3212 6.31782 10.5815 6.57812 10.5815 6.89921V9.99999C10.5815 10.3211 10.3212 10.5814 10.0001 10.5814C9.67899 10.5814 9.41869 10.3211 9.41869 9.99999V6.89921C9.41869 6.57812 9.67899 6.31782 10.0001 6.31782ZM10.0001 12.5194C9.67899 12.5194 9.41869 12.7797 9.41869 13.1008C9.41869 13.4219 9.67899 13.6822 10.0001 13.6822H10.0084C10.3295 13.6822 10.5898 13.4219 10.5898 13.1008C10.5898 12.7797 10.3295 12.5194 10.0084 12.5194H10.0001Z" fill="#222222" style="fill:#222222;fill:color(display-p3 0.1333 0.1333 0.1333);fill-opacity:1;"/>
</svg>
