<svg width="20" height="20" viewBox="0 0 20 20" fill="none" xmlns="http://www.w3.org/2000/svg">
<path fill-rule="evenodd" clip-rule="evenodd" d="M18.3332 10.0001C18.3332 14.6025 14.6022 18.3334 9.99984 18.3334C5.39746 18.3334 1.6665 14.6025 1.6665 10.0001C1.6665 5.39771 5.39746 1.66675 9.99984 1.66675C14.6022 1.66675 18.3332 5.39771 18.3332 10.0001ZM9.99988 6.14583C10.4026 6.14583 10.729 6.47229 10.729 6.875V11.0417C10.729 11.4444 10.4026 11.7708 9.99988 11.7708C9.59717 11.7708 9.27071 11.4444 9.27071 11.0417V6.875C9.27071 6.47229 9.59717 6.14583 9.99988 6.14583ZM9.99988 13.4376C9.59717 13.4376 9.27071 13.764 9.27071 14.1667C9.27071 14.5695 9.59717 14.8959 9.99988 14.8959H10.0103C10.413 14.8959 10.7395 14.5695 10.7395 14.1667C10.7395 13.764 10.413 13.4376 10.0103 13.4376H9.99988Z" fill="#FA6767" style="fill:#FA6767;fill:color(display-p3 0.9792 0.4039 0.4039);fill-opacity:1;"/>
</svg>
