<svg width="20" height="20" viewBox="0 0 20 20" fill="none" xmlns="http://www.w3.org/2000/svg">
<path fill-rule="evenodd" clip-rule="evenodd" d="M10.0001 18.3333C14.6025 18.3333 18.3334 14.6024 18.3334 9.99999C18.3334 5.39762 14.6025 1.66666 10.0001 1.66666C5.39771 1.66666 1.66675 5.39762 1.66675 9.99999C1.66675 14.6024 5.39771 18.3333 10.0001 18.3333ZM13.7793 7.93785C14.0212 7.69158 14.0176 7.29587 13.7714 7.054C13.5251 6.81213 13.1294 6.8157 12.8875 7.06197L8.75008 11.2746L7.11265 9.60742C6.87078 9.36115 6.47507 9.35759 6.22881 9.59946C5.98254 9.84133 5.97897 10.237 6.22084 10.4833L8.30418 12.6045C8.42169 12.7242 8.58237 12.7916 8.75008 12.7916C8.91779 12.7916 9.07847 12.7242 9.19599 12.6045L13.7793 7.93785Z" fill="#888EFF" style="fill:#888EFF;fill:color(display-p3 0.5333 0.5569 1.0000);fill-opacity:1;"/>
</svg>
