<svg width="20" height="20" viewBox="0 0 20 20" fill="none" xmlns="http://www.w3.org/2000/svg">
<path d="M17.0483 3.78519C16.641 3.37775 16.1575 3.05455 15.6253 2.83404C15.0931 2.61353 14.5227 2.50003 13.9466 2.50003C13.3706 2.50003 12.8002 2.61353 12.268 2.83404C11.7358 3.05455 11.2523 3.37775 10.845 3.78519L9.99987 4.63036L9.1547 3.78519C8.3321 2.96259 7.21642 2.50046 6.05309 2.50046C4.88976 2.50046 3.77408 2.96259 2.95148 3.78519C2.12888 4.60778 1.66675 5.72347 1.66675 6.8868C1.66675 8.05013 2.12888 9.16581 2.95148 9.98841L9.99987 17.0368L17.0483 9.98841C17.4557 9.58117 17.7789 9.09764 17.9994 8.56546C18.2199 8.03327 18.3334 7.46286 18.3334 6.8868C18.3334 6.31074 18.2199 5.74032 17.9994 5.20814C17.7789 4.67595 17.4557 4.19243 17.0483 3.78519Z" stroke="#FA6767" style="stroke:#FA6767;stroke:color(display-p3 0.9792 0.4039 0.4039);stroke-opacity:1;" stroke-width="1.19599" stroke-linecap="round" stroke-linejoin="round"/>
</svg>
