<svg width="20" height="20" viewBox="0 0 20 20" fill="none" xmlns="http://www.w3.org/2000/svg">
<path fill-rule="evenodd" clip-rule="evenodd" d="M17.1085 4.55806C17.3526 4.80214 17.3526 5.19786 17.1085 5.44194L7.94186 14.6086C7.69778 14.8527 7.30205 14.8527 7.05798 14.6086L2.89131 10.4419C2.64723 10.1979 2.64723 9.80214 2.89131 9.55806C3.13539 9.31398 3.53112 9.31398 3.77519 9.55806L7.49992 13.2828L16.2246 4.55806C16.4687 4.31398 16.8644 4.31398 17.1085 4.55806Z" fill="#222222" style="fill:#222222;fill:color(display-p3 0.1345 0.1345 0.1345);fill-opacity:1;"/>
<path fill-rule="evenodd" clip-rule="evenodd" d="M16.0833 4.41662C16.4055 4.09444 16.9278 4.09444 17.25 4.41662C17.5722 4.73881 17.5722 5.26117 17.25 5.58335L8.08333 14.75C7.76115 15.0722 7.23879 15.0722 6.9166 14.75L2.74994 10.5834C2.42776 10.2612 2.42776 9.73881 2.74994 9.41662C3.07212 9.09444 3.59448 9.09444 3.91666 9.41662L7.49997 12.9999L16.0833 4.41662ZM16.9672 4.69947C16.8012 4.53349 16.5321 4.53349 16.3661 4.69947L7.64139 13.4242C7.60388 13.4617 7.55301 13.4828 7.49997 13.4828C7.44692 13.4828 7.39605 13.4617 7.35855 13.4242L3.63382 9.69947C3.46785 9.53349 3.19875 9.53349 3.03278 9.69947C2.86681 9.86544 2.86681 10.1345 3.03278 10.3005L7.19945 14.4672C7.36542 14.6331 7.63451 14.6331 7.80049 14.4672L16.9672 5.30051C17.1331 5.13454 17.1331 4.86544 16.9672 4.69947Z" fill="#222222" style="fill:#222222;fill:color(display-p3 0.1333 0.1333 0.1333);fill-opacity:1;"/>
</svg>
