<svg width="20" height="20" viewBox="0 0 20 20" fill="none" xmlns="http://www.w3.org/2000/svg">
<path fill-rule="evenodd" clip-rule="evenodd" d="M7.42984 3.57597C7.52849 3.42439 7.69457 3.33334 7.87242 3.33334H12.1277C12.3056 3.33334 12.4717 3.42439 12.5703 3.57597L13.8309 5.51283H16.3831C16.9003 5.51283 17.3964 5.72332 17.7622 6.09799C18.1279 6.47266 18.3334 6.98083 18.3334 7.51069V15.5021C18.3334 16.032 18.1279 16.5402 17.7622 16.9149C17.3964 17.2895 16.9003 17.5 16.3831 17.5H3.6171C3.09984 17.5 2.60376 17.2895 2.23799 16.9149C1.87223 16.5402 1.66675 16.032 1.66675 15.5021V7.51069C1.66675 6.98083 1.87223 6.47266 2.23799 6.09799C2.60376 5.72332 3.09984 5.51283 3.6171 5.51283H6.16931L7.42984 3.57597ZM8.15709 4.42309L6.89656 6.35994C6.79791 6.51153 6.63183 6.60257 6.45398 6.60257H3.6171C3.38198 6.60257 3.15649 6.69825 2.99023 6.86856C2.82398 7.03886 2.73058 7.26985 2.73058 7.51069V15.5021C2.73058 15.743 2.82398 15.974 2.99023 16.1443C3.15649 16.3146 3.38198 16.4103 3.6171 16.4103H16.3831C16.6182 16.4103 16.8437 16.3146 17.0099 16.1443C17.1762 15.974 17.2696 15.743 17.2696 15.5021V7.51069C17.2696 7.26985 17.1762 7.03886 17.0099 6.86856C16.8437 6.69825 16.6182 6.60257 16.3831 6.60257H13.5462C13.3683 6.60257 13.2023 6.51153 13.1036 6.35994L11.8431 4.42309H8.15709Z" fill="#222222" style="fill:#222222;fill:color(display-p3 0.1345 0.1345 0.1345);fill-opacity:1;"/>
<path fill-rule="evenodd" clip-rule="evenodd" d="M10.0001 8.78206C8.72708 8.78206 7.69512 9.83917 7.69512 11.1432C7.69512 12.4472 8.72708 13.5043 10.0001 13.5043C11.2731 13.5043 12.305 12.4472 12.305 11.1432C12.305 9.83917 11.2731 8.78206 10.0001 8.78206ZM6.63129 11.1432C6.63129 9.23732 8.13955 7.69232 10.0001 7.69232C11.8606 7.69232 13.3689 9.23732 13.3689 11.1432C13.3689 13.049 11.8606 14.594 10.0001 14.594C8.13955 14.594 6.63129 13.049 6.63129 11.1432Z" fill="#222222" style="fill:#222222;fill:color(display-p3 0.1345 0.1345 0.1345);fill-opacity:1;"/>
</svg>
