<svg width="36" height="37" viewBox="0 0 36 37" fill="none" xmlns="http://www.w3.org/2000/svg">
<path d="M17.0398 35.0018C17.5866 35.5121 18.4134 35.5121 18.9602 35.0018C22.0446 32.1238 31.5 22.6999 31.5 15.3315C31.5 8.03776 25.4558 2.125 18 2.125C10.5442 2.125 4.5 8.03776 4.5 15.3315C4.5 22.6999 13.9554 32.1238 17.0398 35.0018Z" fill="#8CCC7D" stroke="#8CCC7D" style="fill:#8CCC7D;fill:color(display-p3 0.5509 0.8007 0.4896);fill-opacity:1;stroke:#8CCC7D;stroke:color(display-p3 0.5509 0.8007 0.4896);stroke-opacity:1;" stroke-width="2.4"/>
<circle cx="18" cy="15.625" r="10.125" fill="white" style="fill:white;fill-opacity:1;"/>
<g clip-path="url(#clip0_38_3641)">
<path fill-rule="evenodd" clip-rule="evenodd" d="M22.1764 9.85723C21.737 9.41789 21.0247 9.41789 20.5854 9.85723L20.3865 10.0561L23.5685 13.2381L23.7674 13.0392C24.2067 12.5999 24.2067 11.8876 23.7674 11.4482L22.1764 9.85723ZM17.6023 10.0561C18.039 9.61935 18.7455 9.61674 19.1854 10.0482L23.5764 14.4392C24.0079 14.8791 24.0052 15.5856 23.5685 16.0223C23.1292 16.4616 22.4169 16.4616 21.9775 16.0223L20.7843 14.829L20.7843 14.8291L18.7955 12.8403L18.7956 12.8403L17.6023 11.6471C17.163 11.2077 17.163 10.4954 17.6023 10.0561ZM18.1989 13.437L15.8124 15.8234L17.8012 17.8122L20.1876 15.4257L18.1989 13.437ZM12.4316 15.2268C12.8683 14.7901 13.5748 14.7875 14.0147 15.219L18.4056 19.6099C18.8371 20.0498 18.8345 20.7563 18.3978 21.193C17.9585 21.6323 17.2462 21.6323 16.8068 21.193L16.2103 20.5965L16.2103 20.5965L13.0283 17.4146L13.0283 17.4145L12.4316 16.8178C11.9923 16.3784 11.9923 15.6661 12.4316 15.2268ZM12.4317 18.0112L12.233 18.2098C11.7937 18.6492 11.7937 19.3615 12.233 19.8008L13.824 21.3918C14.2634 21.8311 14.9757 21.8311 15.415 21.3918L15.6137 21.1932L12.4317 18.0112Z" fill="#75ABFF" style="fill:#75ABFF;fill:color(display-p3 0.4600 0.6700 1.0000);fill-opacity:1;"/>
</g>
<defs>
<clipPath id="clip0_38_3641">
<rect width="13.5" height="13.5" fill="white" style="fill:white;fill-opacity:1;" transform="translate(11.25 8.875)"/>
</clipPath>
</defs>
</svg>
