<svg width="36" height="37" viewBox="0 0 36 37" fill="none" xmlns="http://www.w3.org/2000/svg">
<path d="M17.0398 35.0018C17.5866 35.5121 18.4134 35.5121 18.9602 35.0018C22.0446 32.1238 31.5 22.6999 31.5 15.3315C31.5 8.03776 25.4558 2.125 18 2.125C10.5442 2.125 4.5 8.03776 4.5 15.3315C4.5 22.6999 13.9554 32.1238 17.0398 35.0018Z" fill="#76C663" stroke="#76C663" style="fill:#76C663;fill:color(display-p3 0.4635 0.7765 0.3901);fill-opacity:1;stroke:#76C663;stroke:color(display-p3 0.4635 0.7765 0.3901);stroke-opacity:1;" stroke-width="2.4"/>
<path d="M17.0398 35.0018C17.5866 35.5121 18.4134 35.5121 18.9602 35.0018C22.0446 32.1238 31.5 22.6999 31.5 15.3315C31.5 8.03776 25.4558 2.125 18 2.125C10.5442 2.125 4.5 8.03776 4.5 15.3315C4.5 22.6999 13.9554 32.1238 17.0398 35.0018Z" fill="#76C663" stroke="#76C663" style="fill:#76C663;fill:color(display-p3 0.4635 0.7765 0.3901);fill-opacity:1;stroke:#76C663;stroke:color(display-p3 0.4635 0.7765 0.3901);stroke-opacity:1;" stroke-width="2.4"/>
<circle cx="18" cy="15.625" r="10.125" fill="white" style="fill:white;fill-opacity:1;"/>
<g clip-path="url(#clip0_345_10525)">
<path fill-rule="evenodd" clip-rule="evenodd" d="M22.1764 9.85729C21.7371 9.41795 21.0247 9.41795 20.5854 9.85729L20.3866 10.0562L23.5685 13.2382L23.7674 13.0393C24.2067 12.5999 24.2067 11.8876 23.7674 11.4483L22.1764 9.85729ZM17.6023 10.0561C18.039 9.61941 18.7455 9.6168 19.1854 10.0483L23.5764 14.4393C24.0079 14.8792 24.0053 15.5856 23.5686 16.0223C23.1292 16.4617 22.4169 16.4617 21.9776 16.0223L20.7843 14.8291L20.7843 14.8291L18.7955 12.8404L18.7956 12.8404L17.6023 11.6471C17.163 11.2078 17.163 10.4955 17.6023 10.0561ZM18.1989 13.437L15.8124 15.8235L17.8012 17.8122L20.1877 15.4258L18.1989 13.437ZM12.4316 15.2268C12.8683 14.7901 13.5748 14.7875 14.0147 15.219L18.4056 19.61C18.8372 20.0499 18.8346 20.7563 18.3978 21.1931C17.9585 21.6324 17.2462 21.6324 16.8068 21.1931L16.2103 20.5966L16.2103 20.5966L13.0283 17.4146L13.0284 17.4146L12.4316 16.8178C11.9923 16.3785 11.9923 15.6662 12.4316 15.2268ZM12.4317 18.0112L12.2331 18.2099C11.7937 18.6492 11.7937 19.3615 12.2331 19.8009L13.824 21.3919C14.2634 21.8312 14.9757 21.8312 15.415 21.3919L15.6137 21.1932L12.4317 18.0112Z" fill="#76C663" style="fill:#76C663;fill:color(display-p3 0.4635 0.7765 0.3901);fill-opacity:1;"/>
</g>
<defs>
<clipPath id="clip0_345_10525">
<rect width="13.5" height="13.5" fill="white" style="fill:white;fill-opacity:1;" transform="translate(11.25 8.875)"/>
</clipPath>
</defs>
</svg>
