<svg width="152" height="110" viewBox="0 0 152 110" fill="none" xmlns="http://www.w3.org/2000/svg">
<rect width="152" height="110" rx="10" fill="#EEF0F3" style="fill:#EEF0F3;fill:color(display-p3 0.9343 0.9409 0.9542);fill-opacity:1;"/>
<g clip-path="url(#clip0_938_23216)">
<path fill-rule="evenodd" clip-rule="evenodd" d="M87.1369 39.6193C85.9653 38.4477 84.0658 38.4477 82.8942 39.6193L82.3639 40.1497L90.8492 48.635L91.3795 48.1046C92.5511 46.933 92.5511 45.0335 91.3795 43.8619L87.1369 39.6193ZM74.9394 40.1495C76.1039 38.9849 77.9877 38.978 79.1609 40.1286L90.8702 51.8379C92.0208 53.0111 92.0138 54.8948 90.8493 56.0594C89.6777 57.231 87.7782 57.231 86.6066 56.0594L83.4246 52.8774L83.4245 52.8775L78.1212 47.5742L78.1213 47.5741L74.9394 44.3921C73.7678 43.2206 73.7678 41.3211 74.9394 40.1495ZM76.5303 49.1652L70.1663 55.5292L75.4696 60.8325L81.8336 54.4685L76.5303 49.1652ZM61.1508 53.9381C62.3154 52.7735 64.1992 52.7666 65.3724 53.9173L77.0815 65.6264C78.2322 66.7995 78.2253 68.6834 77.0607 69.848C75.8891 71.0196 73.9896 71.0196 72.818 69.848L71.2274 68.2573L71.2273 68.2574L62.742 59.7721L62.7421 59.772L61.1508 58.1807C59.9792 57.0092 59.9792 55.1097 61.1508 53.9381ZM61.151 61.3631L60.6213 61.8929C59.4497 63.0644 59.4497 64.9639 60.6213 66.1355L64.8639 70.3781C66.0355 71.5497 67.935 71.5497 69.1066 70.3781L69.6363 69.8484L61.151 61.3631Z" fill="white" style="fill:white;fill-opacity:1;"/>
</g>
<defs>
<clipPath id="clip0_938_23216">
<rect width="36" height="36" fill="white" style="fill:white;fill-opacity:1;" transform="translate(58 37)"/>
</clipPath>
</defs>
</svg>
