<svg width="97" height="64" viewBox="0 0 97 64" fill="none" xmlns="http://www.w3.org/2000/svg">
<g clip-path="url(#clip0_961_7029)">
<path d="M79.2743 35.3649C79.2743 35.3649 82.9705 37.8107 86.5621 43.8641C86.8061 44.273 86.841 44.7698 86.6667 45.2131L80.0298 62.2229L77.6083 61.7873L79.5958 53.418C79.5958 53.418 78.5188 48.236 82.06 45.0182C82.06 45.0182 76.4614 41.3151 74.6211 39.3508L79.2743 35.3649Z" fill="#FFCAB3" style="fill:#FFCAB3;fill:color(display-p3 1.0000 0.7922 0.7020);fill-opacity:1;"/>
<path d="M76.9613 32.7777L80.3863 35.8121C80.3863 35.8121 76.4537 41.5445 76.1244 41.2617C75.7951 40.9789 73.6758 40.3903 73.6758 40.3903L76.9613 32.7739V32.7777Z" fill="#FFC876" style="fill:#FFC876;fill:color(display-p3 1.0000 0.7843 0.4627);fill-opacity:1;"/>
<path d="M74.6252 39.3508C74.6252 39.3508 72.0913 45.5455 67.3684 50.3531L50.1621 54.7785L49.8599 52.0499L56.0822 49.5353C56.0822 49.5353 57.632 46.2602 64.6253 46.7646C64.6253 46.7646 67.8914 37.8565 70.2432 36.3508L74.6252 39.3546V39.3508Z" fill="#FFCAB3" style="fill:#FFCAB3;fill:color(display-p3 1.0000 0.7922 0.7020);fill-opacity:1;"/>
<path d="M77.3796 61.1033C77.4493 60.9313 77.6585 60.8664 77.798 60.9772C78.0653 61.1988 78.4334 61.7377 79.1657 61.6689C79.9289 61.6001 80.3551 61.0995 80.4752 60.809C80.5372 60.6562 80.7038 60.5759 80.8433 60.6447L85.5778 62.7657C85.8529 62.8918 86.0622 63.1326 86.1629 63.4268C86.2559 63.7058 86.0389 64.0039 85.7522 63.9962L77.5733 63.7784C77.2595 63.7708 77.027 63.4918 77.0657 63.167L77.2672 61.4052C77.2672 61.3785 77.2788 61.3517 77.2866 61.3288L77.3796 61.1033Z" fill="#FF6C76" style="fill:#FF6C76;fill:color(display-p3 1.0000 0.4235 0.4627);fill-opacity:1;"/>
<path d="M62.8003 29.6364L64.5942 30.1523C65.2412 28.4861 65.8495 26.8084 66.4423 25.1269C67.0467 23.4492 67.6201 22.1958 68.1896 20.5143L68.3756 19.9678H68.3833L68.9955 19.7347L71.9478 18.8098L74.4662 17.8544C75.303 17.5258 76.1399 17.2009 76.9691 16.8532L75.4464 14.0061C73.7262 14.5641 72.0408 15.2023 70.3515 15.8405C69.5108 16.1729 68.67 16.4978 67.8254 16.857L67.1861 17.1322L66.8491 17.2812L66.6631 17.3691L66.6166 17.392L66.5701 17.415C66.5236 17.4379 66.4732 17.4646 66.4268 17.4952C66.2369 17.6099 66.0587 17.7704 65.9192 17.9385C65.8843 17.9805 65.8533 18.0226 65.8223 18.0684C65.7952 18.1067 65.7991 18.1105 65.7875 18.1334L65.741 18.2442C65.71 18.3168 65.679 18.3933 65.6557 18.4697C65.6209 18.5691 65.6286 18.5538 65.617 18.5958L65.5938 18.6799L65.5008 19.0162L65.3225 19.6659C64.8576 21.3932 64.4121 22.6849 64.0014 24.4199C63.5791 26.1511 63.1722 27.8899 62.808 29.6364H62.8003ZM68.5499 19.4786C68.5499 19.4786 68.5499 19.4862 68.5461 19.4901C68.5538 19.4671 68.5616 19.4442 68.5499 19.4786Z" fill="#FFCAB3" style="fill:#FFCAB3;fill:color(display-p3 1.0000 0.7922 0.7020);fill-opacity:1;"/>
<path d="M66.3026 32.0095C65.5975 33.0184 64.1988 33.2745 63.1759 32.5789C62.1531 31.8834 61.8935 30.5038 62.5987 29.4949C63.3038 28.486 64.7025 28.23 65.7253 28.9255C66.7482 29.621 67.0078 31.0006 66.3026 32.0095Z" fill="#FFCAB3" style="fill:#FFCAB3;fill:color(display-p3 1.0000 0.7922 0.7020);fill-opacity:1;"/>
<path d="M78.1122 14.801C77.1436 14.6252 75.9851 15.3437 76.1633 14.3883L77.4806 7.96423L80.7584 8.68269L79.6503 14.8431C79.5069 15.6303 78.9142 14.9424 78.116 14.801H78.1122Z" fill="#FFCAB3" style="fill:#FFCAB3;fill:color(display-p3 1.0000 0.7922 0.7020);fill-opacity:1;"/>
<path d="M83.4393 8.35399C83.0596 10.4176 81.0526 11.7858 78.9605 11.4113C76.8683 11.0367 75.4812 9.05716 75.8609 6.99351C76.2406 4.92985 78.2476 3.56173 80.3398 3.93624C82.4319 4.31076 83.819 6.29034 83.4393 8.35399Z" fill="#FFCAB3" style="fill:#FFCAB3;fill:color(display-p3 1.0000 0.7922 0.7020);fill-opacity:1;"/>
<path d="M80.1033 12.5845C79.1114 12.4049 78.445 11.5107 78.6155 10.582L79.061 8.16296L83.4353 8.35404L82.9974 10.7234C82.7611 11.996 81.4632 12.8291 80.0994 12.5845H80.1033Z" fill="#FFCAB3" style="fill:#FFCAB3;fill:color(display-p3 1.0000 0.7922 0.7020);fill-opacity:1;"/>
<path d="M83.2185 8.76672L83.8229 10.1196C83.9043 10.3374 83.7067 10.5514 83.4665 10.5055L82.4746 10.5132L83.2185 8.76672Z" fill="#FFCAB3" style="fill:#FFCAB3;fill:color(display-p3 1.0000 0.7922 0.7020);fill-opacity:1;"/>
<path d="M80.0606 12.5769C80.0606 12.5769 79.154 12.3514 78.5186 11.545C78.5186 11.545 78.4489 12.4202 79.894 13.4864L80.0606 12.5769Z" fill="#FFBBA6" style="fill:#FFBBA6;fill:color(display-p3 1.0000 0.7333 0.6510);fill-opacity:1;"/>
<path d="M76.2174 13.6316C76.2174 13.6316 72.9745 14.1246 72.436 17.7513C71.8974 21.3779 74.0439 22.5932 73.1218 25.4632C72.1996 28.3332 70.9443 29.258 70.9443 29.258L77.8214 32.6745C77.8214 32.6745 79.2511 29.7778 79.9407 25.467C79.9407 25.467 83.1759 21.9282 82.4707 19.3716C81.7656 16.815 78.7009 13.7997 78.7009 13.7997L76.2174 13.6316Z" fill="#FFCAB3" style="fill:#FFCAB3;fill:color(display-p3 1.0000 0.7922 0.7020);fill-opacity:1;"/>
<mask id="mask0_961_7029" style="mask-type:luminance" maskUnits="userSpaceOnUse" x="70" y="13" width="13" height="20">
<path d="M76.2174 13.6316C76.2174 13.6316 72.9745 14.1246 72.436 17.7513C71.8974 21.3779 74.0439 22.5932 73.1218 25.4632C72.1996 28.3332 70.9443 29.258 70.9443 29.258L77.8214 32.6745C77.8214 32.6745 79.2511 29.7778 79.9407 25.467C79.9407 25.467 83.1759 21.9282 82.4707 19.3716C81.7656 16.815 78.7009 13.7997 78.7009 13.7997L76.2174 13.6316Z" fill="white" style="fill:white;fill-opacity:1;"/>
</mask>
<g mask="url(#mask0_961_7029)">
<path d="M80.173 15.443C80.173 15.443 77.1316 15.9016 78.3094 19.2187C79.2857 21.9703 82.7998 21.1295 83.4972 20.8696L80.8665 25.6237L80.0994 27.0606C80.0994 27.0606 75.3261 27.1561 72.7109 24.6377L71.3936 20.7168L72.4513 14.1169L75.7988 13.173L75.9228 13.7882C75.9228 13.7882 73.5206 15.4927 74.5745 16.2455C75.6283 16.9984 77.0812 15.9895 77.6159 15.6761C78.4954 15.164 79.5027 14.7131 80.3008 14.843L80.173 15.4468V15.443Z" fill="#FF6C76" style="fill:#FF6C76;fill:color(display-p3 1.0000 0.4235 0.4627);fill-opacity:1;"/>
<path d="M79.9405 25.467C79.9405 25.467 75.7716 25.9103 72.8774 23.1511L73.2261 25.0848C73.2261 25.0848 75.0084 26.988 80.0955 27.0606L79.9405 25.467Z" fill="#FF8D99" style="fill:#FF8D99;fill:color(display-p3 1.0000 0.5529 0.6000);fill-opacity:1;"/>
</g>
<path d="M96.9724 18.0914C96.7903 19.3029 95.6435 20.1398 94.4153 19.9563C93.1871 19.7767 92.3386 18.6455 92.5246 17.4341C92.7067 16.2227 93.8535 15.3857 95.0817 15.5692C96.3099 15.7488 97.1584 16.88 96.9724 18.0914Z" fill="#FFCAB3" style="fill:#FFCAB3;fill:color(display-p3 1.0000 0.7922 0.7020);fill-opacity:1;"/>
<path d="M81.3586 15.9169L87.4143 22.0047L94.1287 17.7284L95.3801 19.4404L88.1427 25.1537C87.6042 25.5779 86.8215 25.5779 86.283 25.1116L86.2249 25.062L79.1076 18.8022C78.4528 18.2366 78.3443 16.8341 78.8596 16.1424C79.4563 15.3437 80.6225 15.2367 81.3547 15.9131L81.3586 15.9169Z" fill="#FFCAB3" style="fill:#FFCAB3;fill:color(display-p3 1.0000 0.7922 0.7020);fill-opacity:1;"/>
<path d="M78.0774 32.1013C78.0774 32.1013 75.2916 28.96 71.4366 28.7574C71.4366 28.7574 65.6056 32.0478 68.1395 36.8019L67.2251 38.8541C67.2251 38.8541 70.8283 40.3407 72.2463 39.0413C72.2463 39.0413 71.7892 40.8604 74.0712 41.961C74.0712 41.961 77.349 37.1611 78.0735 32.1013H78.0774Z" fill="#FFD681" style="fill:#FFD681;fill:color(display-p3 1.0000 0.8392 0.5059);fill-opacity:1;"/>
<path d="M75.9152 33.1178C75.9152 33.1178 75.5045 34.4936 76.3142 35.8388" stroke="#FFC162" style="stroke:#FFC162;stroke:color(display-p3 1.0000 0.7569 0.3843);stroke-opacity:1;" stroke-width="0.73" stroke-linecap="round" stroke-linejoin="round"/>
<path d="M75.1132 30.7561C75.1132 30.7561 72.7886 34.3599 72.2539 39.0451" stroke="#FFC162" style="stroke:#FFC162;stroke:color(display-p3 1.0000 0.7569 0.3843);stroke-opacity:1;" stroke-width="0.73" stroke-linecap="round" stroke-linejoin="round"/>
<path d="M78.077 32.1013C78.077 32.1013 75.5509 29.0517 71.4363 28.7574C71.4363 28.7574 70.2546 29.4568 70.0957 29.7205C70.0957 29.7205 74.5668 29.7205 77.7981 33.5688C77.7981 33.5688 78.0383 32.4567 78.077 32.0975V32.1013Z" fill="#FFC162" style="fill:#FFC162;fill:color(display-p3 1.0000 0.7569 0.3843);fill-opacity:1;"/>
<path d="M50.6889 51.32C50.8633 51.3926 50.9291 51.599 50.8129 51.7328C50.5843 51.9964 50.038 52.3519 50.1 53.078C50.1659 53.8308 50.6695 54.255 50.964 54.3735C51.119 54.4346 51.1965 54.5989 51.1306 54.7403L48.9454 59.395C48.8137 59.6664 48.5696 59.8727 48.2713 59.9683C47.9884 60.0562 47.6862 59.8422 47.694 59.5594L47.973 51.492C47.9846 51.1825 48.2674 50.957 48.5967 50.9952L50.3828 51.2054C50.41 51.2054 50.4371 51.2168 50.4603 51.2245L50.6889 51.3162V51.32Z" fill="#FF6C76" style="fill:#FF6C76;fill:color(display-p3 1.0000 0.4235 0.4627);fill-opacity:1;"/>
<mask id="mask1_961_7029" style="mask-type:luminance" maskUnits="userSpaceOnUse" x="75" y="3" width="9" height="9">
<path d="M83.4393 8.35399C83.0596 10.4176 81.0526 11.7858 78.9605 11.4113C76.8683 11.0367 75.4812 9.05716 75.8609 6.99351C76.2406 4.92985 78.2476 3.56173 80.3398 3.93624C82.4319 4.31076 83.819 6.29034 83.4393 8.35399Z" fill="white" style="fill:white;fill-opacity:1;"/>
</mask>
<g mask="url(#mask1_961_7029)">
<path d="M79.2898 9.20616H80.5219L80.6614 6.48519L83.4432 5.13236C83.4432 5.13236 76.7288 -0.0611718 74.9853 7.66606C73.2419 15.3971 76.6359 10.2456 76.6359 10.2456L77.403 11.4647L79.2898 9.20234V9.20616Z" fill="#000735" style="fill:#000735;fill:color(display-p3 0.0000 0.0275 0.2078);fill-opacity:1;"/>
</g>
<path d="M79.9332 9.39348C79.8286 9.95908 79.2784 10.3374 78.7011 10.2342C78.1277 10.131 77.7441 9.58838 77.8487 9.01897C77.9534 8.45337 78.5035 8.07504 79.0808 8.17822C79.6542 8.2814 80.0378 8.82407 79.9332 9.39348Z" fill="#FFCAB3" style="fill:#FFCAB3;fill:color(display-p3 1.0000 0.7922 0.7020);fill-opacity:1;"/>
<path d="M78.488 10.1692C78.488 10.1692 78.2672 13.0774 75.9232 13.7844C75.9232 13.7844 75.4117 13.7806 74.5012 14.3462L71.3397 15.4697C71.3397 15.4697 69.6233 11.266 78.4919 10.173L78.488 10.1692Z" fill="#000735" style="fill:#000735;fill:color(display-p3 0.0000 0.0275 0.2078);fill-opacity:1;"/>
<path d="M76.6942 10.1846C79.3676 8.14002 82.5446 6.80246 83.366 6.47381C83.4783 6.42795 83.5326 6.30566 83.49 6.19101L83.087 5.1439C83.0444 5.02925 82.9127 4.97193 82.7964 5.01778C81.9286 5.36173 78.5966 6.74896 75.714 8.95783C75.6171 9.03427 75.5978 9.17566 75.6753 9.2712L76.3804 10.1502C76.4579 10.2457 76.5935 10.261 76.6904 10.1846H76.6942Z" fill="#FFD681" style="fill:#FFD681;fill:color(display-p3 1.0000 0.8392 0.5059);fill-opacity:1;"/>
<path d="M18.8335 13.3526C19.3875 12.6877 20.3251 12.466 21.1698 12.6801C22.15 12.9285 23.0024 13.6011 23.2503 15.5577C23.6804 18.978 22.398 24.1142 22.398 24.1142L31.8244 21.378L32.5916 23.3079C32.5916 23.3079 24.4514 27.7294 20.5034 27.695C20.5034 27.695 18.0625 23.2276 19.2597 17.6749C19.2597 17.6749 17.0706 15.4622 18.8374 13.3526H18.8335Z" fill="#FFC9A6" style="fill:#FFC9A6;fill:color(display-p3 1.0000 0.7882 0.6510);fill-opacity:1;"/>
<path d="M33.0489 19.2723C34.1802 19.4978 34.9124 20.5907 34.6839 21.7066C34.4553 22.8225 33.3472 23.5448 32.2159 23.3193C31.0845 23.0939 30.3523 22.0009 30.5808 20.885C30.8094 19.7691 31.9175 19.0468 33.0489 19.2723Z" fill="#FFC9A6" style="fill:#FFC9A6;fill:color(display-p3 1.0000 0.7882 0.6510);fill-opacity:1;"/>
<path d="M17.8999 40.8374C17.8999 40.8374 15.7883 44.4755 13.0375 45.4233L3.69237 57.9428L2.02637 56.4409L6.31535 48.6869L9.19792 44.7507C9.19792 44.7507 10.6237 40.9482 12.8205 37.696L17.8999 40.8336V40.8374Z" fill="#FFC9A6" style="fill:#FFC9A6;fill:color(display-p3 1.0000 0.7882 0.6510);fill-opacity:1;"/>
<path d="M21.7431 35.0095L17.8997 40.8374C17.8997 40.8374 16.1484 40.7381 12.8203 37.6999L15.8191 31.6656L21.7431 35.0057V35.0095Z" fill="#001A4C" style="fill:#001A4C;fill:color(display-p3 0.0000 0.1020 0.2980);fill-opacity:1;"/>
<path d="M23.7654 30.8822C23.7654 30.8822 22.7154 34.3561 21.7429 35.0095C21.3632 35.2656 16.1057 31.1306 16.1057 31.1306L15.6523 28.1345L23.7654 30.8822Z" fill="#002066" style="fill:#002066;fill:color(display-p3 0.0000 0.1255 0.4000);fill-opacity:1;"/>
<path d="M23.6414 13.0927L23.3586 13.001C22.4248 12.6953 21.9173 11.7017 22.2272 10.7769L23.9242 5.67505L27.8529 6.9591L25.9467 12.2787C25.691 13.0392 24.4124 13.345 23.6414 13.0927Z" fill="#FFC9A6" style="fill:#FFC9A6;fill:color(display-p3 1.0000 0.7882 0.6510);fill-opacity:1;"/>
<path d="M24.6141 8.83936C24.6141 8.83936 24.095 10.6775 26.1252 11.7858L26.5397 10.624L24.6103 8.83936H24.6141Z" fill="#FFBE99" style="fill:#FFBE99;fill:color(display-p3 1.0000 0.7451 0.6000);fill-opacity:1;"/>
<path d="M29.2905 5.47249C29.0929 7.56672 27.2138 9.10299 25.0907 8.91191C22.9675 8.71701 21.41 6.86355 21.6037 4.76932C21.8013 2.6751 23.6804 1.13882 25.8036 1.3299C27.9267 1.5248 29.4843 3.37827 29.2905 5.47249Z" fill="#FFC9A6" style="fill:#FFC9A6;fill:color(display-p3 1.0000 0.7882 0.6510);fill-opacity:1;"/>
<path d="M26.276 10.6125C25.2687 10.5208 24.5287 9.63803 24.6217 8.64442L24.9626 5.01392L29.2903 5.41136L29.0114 8.36926C28.8835 9.73357 27.6553 10.7386 26.2722 10.6125H26.276Z" fill="#FFC9A6" style="fill:#FFC9A6;fill:color(display-p3 1.0000 0.7882 0.6510);fill-opacity:1;"/>
<path d="M29.0967 6.30936L29.8212 7.60488C29.922 7.81507 29.7438 8.04436 29.4997 8.02143L28.5078 8.11315L29.0967 6.30554V6.30936Z" fill="#FFC9A6" style="fill:#FFC9A6;fill:color(display-p3 1.0000 0.7882 0.6510);fill-opacity:1;"/>
<mask id="mask2_961_7029" style="mask-type:luminance" maskUnits="userSpaceOnUse" x="21" y="1" width="9" height="8">
<path d="M29.2905 5.47249C29.0929 7.56672 27.2138 9.10299 25.0907 8.91191C22.9675 8.71701 21.41 6.86355 21.6037 4.76932C21.8013 2.6751 23.6804 1.13882 25.8036 1.3299C27.9267 1.5248 29.4843 3.37827 29.2905 5.47249Z" fill="white" style="fill:white;fill-opacity:1;"/>
</mask>
<g mask="url(#mask2_961_7029)">
<path d="M25.6679 6.80618C25.6679 6.80618 27.0278 5.72468 26.497 3.72217C26.497 3.72217 29.2246 4.28394 29.9065 3.40115C29.9065 3.40115 28.0274 -1.45607 23.537 0.43943C19.0465 2.33493 20.5537 7.32592 20.5537 7.32592L23.9903 8.64818L25.664 6.80618H25.6679Z" fill="#000735" style="fill:#000735;fill:color(display-p3 0.0000 0.0275 0.2078);fill-opacity:1;"/>
</g>
<path d="M25.8808 6.8177C25.8266 7.39094 25.3113 7.81513 24.7262 7.76163C24.1451 7.70813 23.715 7.19986 23.7693 6.6228C23.8235 6.04956 24.3388 5.62537 24.9238 5.67887C25.505 5.73237 25.9351 6.24064 25.8808 6.8177Z" fill="#FFC9A6" style="fill:#FFC9A6;fill:color(display-p3 1.0000 0.7882 0.6510);fill-opacity:1;"/>
<path d="M22.8162 7.13489L22.7349 8.95014C22.7349 8.95014 24.6759 9.57306 24.8464 7.77309L23.6492 7.87627L22.8162 7.13489Z" fill="#000735" style="fill:#000735;fill:color(display-p3 0.0000 0.0275 0.2078);fill-opacity:1;"/>
<path d="M27.3221 15.0456C27.3221 15.0456 27.7599 15.9818 27.7018 17.7321C27.6592 19.0238 26.214 22.2148 25.4508 23.8084C25.1408 24.4581 24.9161 25.1383 24.7766 25.8415L23.7654 30.8822C23.7654 30.8822 17.7252 30.007 15.6523 28.1345C15.6523 28.1345 17.6554 23.6365 17.6554 16.5627C17.6554 10.8647 22.2001 10.8647 22.2001 10.8647L27.3221 15.0417V15.0456Z" fill="#55D2DD" style="fill:#55D2DD;fill:color(display-p3 0.3333 0.8235 0.8667);fill-opacity:1;"/>
<path d="M24.9937 11.7857C24.9937 11.7857 26.6713 13.2914 27.3222 15.0455C27.3222 15.0455 24.5558 14.1704 22.2002 10.8685L24.9937 11.7857Z" fill="#FFC9A6" style="fill:#FFC9A6;fill:color(display-p3 1.0000 0.7882 0.6510);fill-opacity:1;"/>
<path d="M15.6527 28.1345C15.6527 28.1345 12.6616 31.5319 15.0366 35.2044C16.8499 38.0095 25.4472 40.1305 25.4472 40.1305C25.4472 40.1305 27.183 38.6897 28.0973 35.2044C28.0973 35.2044 21.844 30.3816 17.6558 30.4313L15.6527 28.1383V28.1345Z" fill="#002066" style="fill:#002066;fill:color(display-p3 0.0000 0.1255 0.4000);fill-opacity:1;"/>
<path d="M28.0973 35.2006C28.0973 35.2006 31.6502 37.0732 33.5835 38.9381C34.2189 39.5534 34.4087 40.4858 34.0833 41.2998C32.9868 44.0284 29.4766 51.4079 26.4352 57.3275L24.1919 56.7467L29.6587 41.1355L25.4472 40.1228L28.0973 35.1968V35.2006Z" fill="#FFC9A6" style="fill:#FFC9A6;fill:color(display-p3 1.0000 0.7882 0.6510);fill-opacity:1;"/>
<path d="M29.6588 41.1431C29.6588 41.1431 26.5476 42.0144 26.4391 48.8588C26.3306 55.7071 29.6588 41.1431 29.6588 41.1431Z" fill="#FFC9A6" style="fill:#FFC9A6;fill:color(display-p3 1.0000 0.7882 0.6510);fill-opacity:1;"/>
<path d="M11.604 43.7266C11.604 43.7266 8.46188 43.7151 6.72226 47.059C4.57583 51.1825 5.29648 54.5531 5.29648 54.5531L11.604 43.7266Z" fill="#FFC9A6" style="fill:#FFC9A6;fill:color(display-p3 1.0000 0.7882 0.6510);fill-opacity:1;"/>
<path d="M24.0486 56.1734C24.1261 55.9976 24.3469 55.9441 24.4941 56.0664C24.7808 56.3072 24.9474 56.8384 25.734 56.804C26.5515 56.7696 27.0086 56.2766 27.1365 55.9824C27.2024 55.8295 27.3806 55.7569 27.5317 55.8295L32.6149 58.218C32.9094 58.3594 33.138 58.6154 33.2426 58.9211C33.3433 59.2116 33.1109 59.5058 32.8009 59.4867L24.2578 58.9173C23.9207 58.8944 23.6728 58.6001 23.7115 58.2677L23.9207 56.4715C23.9207 56.4448 23.9324 56.418 23.9401 56.3951L24.037 56.1696L24.0486 56.1734Z" fill="#121C21" style="fill:#121C21;fill:color(display-p3 0.0706 0.1098 0.1294);fill-opacity:1;"/>
<path d="M2.09596 55.0996C2.27806 55.0422 2.46791 55.176 2.46791 55.3671C2.46791 55.7378 2.16183 56.2078 2.70037 56.7772C3.25829 57.3696 3.93631 57.3925 4.24239 57.297C4.40512 57.2473 4.57559 57.3352 4.61821 57.4957L6.07112 62.865C6.15248 63.1822 6.10211 63.5147 5.93551 63.7937C5.77666 64.0574 5.39697 64.0765 5.21487 63.8281L0.116134 57.0409C-0.0853362 56.7734 -0.0155967 56.3951 0.263362 56.2117L1.78601 55.2066C1.80926 55.1913 1.8325 55.1798 1.85962 55.1722L2.09984 55.0996H2.09596Z" fill="#121C21" style="fill:#121C21;fill:color(display-p3 0.0706 0.1098 0.1294);fill-opacity:1;"/>
<path d="M20.8716 11.5603C20.8716 11.5603 24.5872 12.1794 23.0296 16.7691C22.1385 19.3984 16.6833 19.3754 18.9538 14.7934L20.8716 11.5603Z" fill="#FFBE99" style="fill:#FFBE99;fill:color(display-p3 1.0000 0.7451 0.6000);fill-opacity:1;"/>
<path d="M21.5958 11.8163C22.3784 12.1985 22.8123 13.0469 22.793 13.9067C22.7697 14.9042 22.3009 15.8787 20.4257 16.5589C17.1441 17.7512 11.7819 17.6863 11.7819 17.6863L16.4467 25.7536L14.893 27.2975C14.893 27.2975 8.67845 20.4837 7.81445 16.6812C7.81445 16.6812 11.6695 13.322 17.4269 13.2074C17.4269 13.2074 19.1123 10.6011 21.5958 11.8163Z" fill="#FFC9A6" style="fill:#FFC9A6;fill:color(display-p3 1.0000 0.7882 0.6510);fill-opacity:1;"/>
<path d="M18.9842 26.8122C19.019 27.951 18.1086 28.9026 16.954 28.937C15.7994 28.9714 14.8347 28.0733 14.7998 26.9345C14.7649 25.7956 15.6754 24.8441 16.83 24.8097C17.9846 24.7753 18.9493 25.6734 18.9842 26.8122Z" fill="#FFC9A6" style="fill:#FFC9A6;fill:color(display-p3 1.0000 0.7882 0.6510);fill-opacity:1;"/>
<path d="M22.2003 10.8647C22.2003 10.8647 22.9248 11.1017 24.5559 13.1768C24.5559 13.1768 25.0364 13.8838 25.8849 14.3424C26.7372 14.801 24.5559 15.7717 24.5559 15.7717L23.3587 12.9972L21.6772 11.2851L22.1964 10.8647H22.2003Z" fill="#55D2DD" style="fill:#55D2DD;fill:color(display-p3 0.3333 0.8235 0.8667);fill-opacity:1;"/>
<path d="M28.8761 3.12604C28.8761 3.12604 26.9312 5.43045 21.4179 5.6865C21.4179 5.6865 20.2517 1.33372 24.2733 0.630547C28.295 -0.072624 28.88 3.12604 28.88 3.12604H28.8761Z" fill="#002066" style="fill:#002066;fill:color(display-p3 0.0000 0.1255 0.4000);fill-opacity:1;"/>
<path d="M28.876 3.1261H32.1112C32.2855 3.1261 32.3592 3.34011 32.2235 3.44711C31.9368 3.66876 31.5649 3.98978 31.2511 4.35665C30.8598 4.81524 30.298 5.09803 29.6897 5.09803L24.1299 5.36172C27.9927 3.95156 28.8683 3.12992 28.8683 3.12992L28.876 3.1261Z" fill="#001A4C" style="fill:#001A4C;fill:color(display-p3 0.0000 0.1020 0.2980);fill-opacity:1;"/>
</g>
<defs>
<clipPath id="clip0_961_7029">
<rect width="97" height="64" fill="white" style="fill:white;fill-opacity:1;"/>
</clipPath>
</defs>
</svg>
