<svg xmlns="http://www.w3.org/2000/svg" width="24" height="24" viewBox="0 0 24 24" fill="none">
  <path d="M10.5293 1.16877C11.131 -0.103876 12.869 -0.103874 13.4707 1.16877L15.842 6.18479C16.0807 6.68971 16.5419 7.03984 17.0755 7.12127L22.381 7.93098C23.7258 8.1362 24.2617 9.86209 23.2882 10.8522L19.4517 14.7538C19.0648 15.1472 18.8883 15.7143 18.9795 16.27L19.8846 21.78C20.1144 23.179 18.708 24.2458 17.5048 23.5851L12.7634 20.9816C12.2855 20.7192 11.7145 20.7192 11.2366 20.9816L6.49525 23.5851C5.29203 24.2458 3.88557 23.179 4.11538 21.78L5.02046 16.27C5.11175 15.7143 4.93517 15.1472 4.54832 14.7538L0.711817 10.8522C-0.26173 9.86209 0.274226 8.1362 1.61896 7.93098L6.92452 7.12127C7.45813 7.03984 7.9193 6.68971 8.158 6.18479L10.5293 1.16877Z" fill="#D2D6DB" style="fill:#D2D6DB;fill:color(display-p3 0.8235 0.8392 0.8588);fill-opacity:1;"/>
</svg>