<svg width="49" height="48" viewBox="0 0 49 48" fill="none" xmlns="http://www.w3.org/2000/svg">
<g clip-path="url(#clip0_459_15429)">
<path fill-rule="evenodd" clip-rule="evenodd" d="M33.7686 35.3897C30.7241 37.9545 26.7925 39.5 22.5 39.5C12.835 39.5 5 31.665 5 22C5 12.335 12.835 4.5 22.5 4.5C32.165 4.5 40 12.335 40 22C40 26.2924 38.4546 30.2238 35.8899 33.2683L43.5607 40.9391C44.1465 41.5249 44.1465 42.4747 43.5607 43.0605C42.9749 43.6463 42.0252 43.6463 41.4394 43.0605L33.7686 35.3897ZM8 22C8 13.9919 14.4919 7.5 22.5 7.5C30.5081 7.5 37 13.9919 37 22C37 25.921 35.4437 29.4784 32.9151 32.0884C32.8537 32.1334 32.7949 32.1836 32.7394 32.2391C32.6839 32.2947 32.6336 32.3535 32.5886 32.4149C29.9786 34.9436 26.4211 36.5 22.5 36.5C14.4919 36.5 8 30.0081 8 22Z" fill="#75ABFF" style="fill:#75ABFF;fill:color(display-p3 0.4600 0.6700 1.0000);fill-opacity:1;"/>
<circle cx="37" cy="12" r="10" fill="white" style="fill:white;fill-opacity:1;"/>
<path fill-rule="evenodd" clip-rule="evenodd" d="M40.8245 14.539C40.909 14.6234 40.9759 14.7236 41.0216 14.8339C41.0673 14.9441 41.0908 15.0623 41.0908 15.1817C41.0908 15.3011 41.0673 15.4193 41.0216 15.5295C40.9759 15.6398 40.909 15.74 40.8245 15.8244C40.7401 15.9088 40.6399 15.9758 40.5297 16.0215C40.4194 16.0671 40.3012 16.0907 40.1818 16.0907C40.0625 16.0907 39.9443 16.0671 39.834 16.0215C39.7237 15.9758 39.6235 15.9088 39.5391 15.8244L37 13.2853L34.4609 15.8244C34.3767 15.9091 34.2765 15.9764 34.1662 16.0222C34.0559 16.0681 33.9376 16.0917 33.8182 16.0917C33.6987 16.0917 33.5804 16.0681 33.4701 16.0222C33.3598 15.9764 33.2597 15.9091 33.1755 15.8244C33.091 15.7401 33.0239 15.6399 32.9782 15.5296C32.9325 15.4193 32.9089 15.3011 32.9089 15.1817C32.9089 15.0623 32.9325 14.9441 32.9782 14.8338C33.0239 14.7235 33.091 14.6233 33.1755 14.539L35.7145 11.9999L33.1755 9.46079C33.0911 9.37638 33.0241 9.27618 32.9784 9.1659C32.9327 9.05562 32.9092 8.93743 32.9092 8.81806C32.9092 8.69869 32.9327 8.5805 32.9784 8.47022C33.0241 8.35994 33.0911 8.25974 33.1755 8.17533C33.2599 8.09093 33.3601 8.02398 33.4703 7.9783C33.5806 7.93262 33.6988 7.90911 33.8182 7.90911C33.9375 7.90911 34.0557 7.93262 34.166 7.9783C34.2763 8.02398 34.3765 8.09093 34.4609 8.17533L37 10.7144L39.5391 8.17533C39.6235 8.09093 39.7237 8.02398 39.834 7.9783C39.9443 7.93262 40.0625 7.90911 40.1818 7.90911C40.3012 7.90911 40.4194 7.93262 40.5297 7.9783C40.6399 8.02398 40.7401 8.09093 40.8245 8.17533C40.909 8.25974 40.9759 8.35994 41.0216 8.47022C41.0673 8.5805 41.0908 8.69869 41.0908 8.81806C41.0908 8.93743 41.0673 9.05562 41.0216 9.1659C40.9759 9.27618 40.909 9.37638 40.8245 9.46079L38.2855 11.9999L40.8245 14.539ZM37 1.99988C31.4773 1.99988 27 6.47715 27 11.9999C27 17.5226 31.4773 21.9999 37 21.9999C42.5227 21.9999 47 17.5226 47 11.9999C47 6.47715 42.5227 1.99988 37 1.99988Z" fill="#C2D9FC" style="fill:#C2D9FC;fill:color(display-p3 0.7608 0.8510 0.9882);fill-opacity:1;"/>
</g>
<defs>
<clipPath id="clip0_459_15429">
<rect width="48" height="48" fill="white" style="fill:white;fill-opacity:1;" transform="translate(0.5)"/>
</clipPath>
</defs>
</svg>
