<svg width="44" height="44" viewBox="0 0 44 44" fill="none" xmlns="http://www.w3.org/2000/svg">
<circle cx="22" cy="22" r="22" fill="#F6F7F9" style="fill:#F6F7F9;fill:color(display-p3 0.9650 0.9700 0.9750);fill-opacity:1;"/>
<path d="M31.1627 14.9616C30.6333 14.4454 30.0047 14.0359 29.3129 13.7566C28.621 13.4772 27.8795 13.3334 27.1306 13.3334C26.3817 13.3334 25.6402 13.4772 24.9484 13.7566C24.2565 14.0359 23.6279 14.4454 23.0985 14.9616L21.9998 16.0323L20.9011 14.9616C19.8317 13.9194 18.3813 13.334 16.869 13.334C15.3567 13.334 13.9063 13.9194 12.8369 14.9616C11.7675 16.0037 11.1667 17.4172 11.1667 18.891C11.1667 20.3649 11.7675 21.7783 12.8369 22.8205L21.9998 31.7501L31.1627 22.8205C31.6924 22.3045 32.1125 21.692 32.3992 21.0177C32.6859 20.3435 32.8334 19.6208 32.8334 18.891C32.8334 18.1612 32.6859 17.4386 32.3992 16.7643C32.1125 16.0901 31.6924 15.4775 31.1627 14.9616Z" fill="#D2D6DB" style="fill:#D2D6DB;fill:color(display-p3 0.8235 0.8392 0.8588);fill-opacity:1;"/>
</svg>
