<svg width="49" height="48" viewBox="0 0 49 48" fill="none" xmlns="http://www.w3.org/2000/svg">
<g clip-path="url(#clip0_345_14278)">
<path fill-rule="evenodd" clip-rule="evenodd" d="M33.7686 35.3897C30.7241 37.9545 26.7925 39.5 22.5 39.5C12.835 39.5 5 31.665 5 22C5 12.335 12.835 4.5 22.5 4.5C32.165 4.5 40 12.335 40 22C40 26.2924 38.4546 30.2238 35.8899 33.2683L43.5607 40.9391C44.1465 41.5249 44.1465 42.4747 43.5607 43.0605C42.9749 43.6463 42.0252 43.6463 41.4394 43.0605L33.7686 35.3897ZM8 22C8 13.9919 14.4919 7.5 22.5 7.5C30.5081 7.5 37 13.9919 37 22C37 25.921 35.4437 29.4784 32.9151 32.0884C32.8537 32.1334 32.7949 32.1836 32.7394 32.2391C32.6839 32.2947 32.6336 32.3535 32.5886 32.4149C29.9786 34.9436 26.4211 36.5 22.5 36.5C14.4919 36.5 8 30.0081 8 22Z" fill="#76C663" style="fill:#76C663;fill:color(display-p3 0.4635 0.7765 0.3901);fill-opacity:1;"/>
<circle cx="37" cy="12" r="10" fill="white" style="fill:white;fill-opacity:1;"/>
<path fill-rule="evenodd" clip-rule="evenodd" d="M40.8245 14.5391C40.909 14.6235 40.9759 14.7237 41.0216 14.834C41.0673 14.9443 41.0908 15.0625 41.0908 15.1818C41.0908 15.3012 41.0673 15.4194 41.0216 15.5297C40.9759 15.6399 40.909 15.7401 40.8245 15.8245C40.7401 15.909 40.6399 15.9759 40.5297 16.0216C40.4194 16.0673 40.3012 16.0908 40.1818 16.0908C40.0625 16.0908 39.9443 16.0673 39.834 16.0216C39.7237 15.9759 39.6235 15.909 39.5391 15.8245L37 13.2855L34.4609 15.8245C34.3767 15.9093 34.2765 15.9765 34.1662 16.0224C34.0559 16.0682 33.9376 16.0919 33.8182 16.0919C33.6987 16.0919 33.5804 16.0682 33.4701 16.0224C33.3598 15.9765 33.2597 15.9093 33.1755 15.8245C33.091 15.7402 33.0239 15.64 32.9782 15.5297C32.9325 15.4194 32.9089 15.3012 32.9089 15.1818C32.9089 15.0624 32.9325 14.9442 32.9782 14.8339C33.0239 14.7236 33.091 14.6234 33.1755 14.5391L35.7145 12L33.1755 9.46091C33.0911 9.3765 33.0241 9.2763 32.9784 9.16602C32.9327 9.05574 32.9092 8.93755 32.9092 8.81818C32.9092 8.69882 32.9327 8.58062 32.9784 8.47034C33.0241 8.36006 33.0911 8.25986 33.1755 8.17545C33.2599 8.09105 33.3601 8.0241 33.4703 7.97842C33.5806 7.93274 33.6988 7.90923 33.8182 7.90923C33.9375 7.90923 34.0557 7.93274 34.166 7.97842C34.2763 8.0241 34.3765 8.09105 34.4609 8.17546L37 10.7145L39.5391 8.17546C39.6235 8.09105 39.7237 8.0241 39.834 7.97842C39.9443 7.93274 40.0625 7.90923 40.1818 7.90923C40.3012 7.90923 40.4194 7.93274 40.5297 7.97842C40.6399 8.0241 40.7401 8.09105 40.8245 8.17546C40.909 8.25986 40.9759 8.36006 41.0216 8.47034C41.0673 8.58062 41.0908 8.69882 41.0908 8.81818C41.0908 8.93755 41.0673 9.05574 41.0216 9.16602C40.9759 9.2763 40.909 9.3765 40.8245 9.46091L38.2855 12L40.8245 14.5391ZM37 2C31.4773 2 27 6.47727 27 12C27 17.5227 31.4773 22 37 22C42.5227 22 47 17.5227 47 12C47 6.47727 42.5227 2 37 2Z" fill="#C7E9BE" style="fill:#C7E9BE;fill:color(display-p3 0.7804 0.9137 0.7451);fill-opacity:1;"/>
</g>
<defs>
<clipPath id="clip0_345_14278">
<rect width="48" height="48" fill="white" style="fill:white;fill-opacity:1;" transform="translate(0.5)"/>
</clipPath>
</defs>
</svg>
