<svg width="20" height="20" viewBox="0 0 20 20" fill="none" xmlns="http://www.w3.org/2000/svg">
<path fill-rule="evenodd" clip-rule="evenodd" d="M10 5.00004C10.4603 5.00004 10.8334 4.62694 10.8334 4.16671C10.8334 3.70647 10.4603 3.33337 10 3.33337C9.53978 3.33337 9.16669 3.70647 9.16669 4.16671C9.16669 4.62694 9.53978 5.00004 10 5.00004ZM10 10.8334C10.4603 10.8334 10.8334 10.4603 10.8334 10C10.8334 9.5398 10.4603 9.16671 10 9.16671C9.53978 9.16671 9.16669 9.5398 9.16669 10C9.16669 10.4603 9.53978 10.8334 10 10.8334ZM10.8334 15.8334C10.8334 16.2936 10.4603 16.6667 10 16.6667C9.53978 16.6667 9.16669 16.2936 9.16669 15.8334C9.16669 15.3731 9.53978 15 10 15C10.4603 15 10.8334 15.3731 10.8334 15.8334Z" fill="#9EA1A4" style="fill:#9EA1A4;fill:color(display-p3 0.6196 0.6314 0.6431);fill-opacity:1;"/>
<path d="M10.2084 4.16671C10.2084 4.28177 10.1151 4.37504 10 4.37504V5.62504C10.8054 5.62504 11.4584 4.97212 11.4584 4.16671H10.2084ZM10 3.95837C10.1151 3.95837 10.2084 4.05165 10.2084 4.16671H11.4584C11.4584 3.36129 10.8054 2.70837 10 2.70837V3.95837ZM9.79169 4.16671C9.79169 4.05165 9.88496 3.95837 10 3.95837V2.70837C9.19461 2.70837 8.54169 3.36129 8.54169 4.16671H9.79169ZM10 4.37504C9.88496 4.37504 9.79169 4.28177 9.79169 4.16671H8.54169C8.54169 4.97212 9.19461 5.62504 10 5.62504V4.37504ZM10.2084 10C10.2084 10.1151 10.1151 10.2084 10 10.2084V11.4584C10.8054 11.4584 11.4584 10.8055 11.4584 10H10.2084ZM10 9.79171C10.1151 9.79171 10.2084 9.88498 10.2084 10H11.4584C11.4584 9.19463 10.8054 8.54171 10 8.54171V9.79171ZM9.79169 10C9.79169 9.88498 9.88496 9.79171 10 9.79171V8.54171C9.1946 8.54171 8.54169 9.19463 8.54169 10H9.79169ZM10 10.2084C9.88496 10.2084 9.79169 10.1151 9.79169 10H8.54169C8.54169 10.8055 9.1946 11.4584 10 11.4584V10.2084ZM10 17.2917C10.8054 17.2917 11.4584 16.6388 11.4584 15.8334H10.2084C10.2084 15.9484 10.1151 16.0417 10 16.0417V17.2917ZM8.54169 15.8334C8.54169 16.6388 9.1946 17.2917 10 17.2917V16.0417C9.88496 16.0417 9.79169 15.9484 9.79169 15.8334H8.54169ZM10 14.375C9.1946 14.375 8.54169 15.028 8.54169 15.8334H9.79169C9.79169 15.7183 9.88496 15.625 10 15.625V14.375ZM11.4584 15.8334C11.4584 15.028 10.8054 14.375 10 14.375V15.625C10.1151 15.625 10.2084 15.7183 10.2084 15.8334H11.4584Z" fill="#9EA1A4" style="fill:#9EA1A4;fill:color(display-p3 0.6196 0.6314 0.6431);fill-opacity:1;"/>
</svg>
