<svg width="49" height="48" viewBox="0 0 49 48" fill="none" xmlns="http://www.w3.org/2000/svg">
<path d="M19.1667 40.1818C20.582 41.3125 22.4511 42 24.5 42C26.5489 42 28.418 41.3125 29.8333 40.1818M9.51527 34.3636C8.67204 34.3636 8.20108 33.0389 8.71115 32.3029C9.89472 30.5951 11.0371 28.0903 11.0371 25.074L11.0859 20.7033C11.0859 12.5829 17.0916 6 24.5 6C32.0175 6 38.1117 12.6799 38.1117 20.9199L38.0628 25.074C38.0628 28.111 39.1658 30.6295 40.3013 32.338C40.7916 33.0758 40.3195 34.3636 39.4867 34.3636H9.51527Z" stroke="#75ABFF" style="stroke:#75ABFF;stroke:color(display-p3 0.4600 0.6700 1.0000);stroke-opacity:1;" stroke-width="3" stroke-linecap="round" stroke-linejoin="round"/>
<circle cx="37" cy="12" r="10" fill="white" style="fill:white;fill-opacity:1;"/>
<path fill-rule="evenodd" clip-rule="evenodd" d="M40.8245 14.5391C40.909 14.6235 40.9759 14.7237 41.0216 14.834C41.0673 14.9443 41.0908 15.0625 41.0908 15.1818C41.0908 15.3012 41.0673 15.4194 41.0216 15.5297C40.9759 15.6399 40.909 15.7401 40.8245 15.8245C40.7401 15.909 40.6399 15.9759 40.5297 16.0216C40.4194 16.0673 40.3012 16.0908 40.1818 16.0908C40.0625 16.0908 39.9443 16.0673 39.834 16.0216C39.7237 15.9759 39.6235 15.909 39.5391 15.8245L37 13.2855L34.4609 15.8245C34.3767 15.9093 34.2765 15.9765 34.1662 16.0224C34.0559 16.0682 33.9376 16.0919 33.8182 16.0919C33.6987 16.0919 33.5804 16.0682 33.4701 16.0224C33.3598 15.9765 33.2597 15.9093 33.1755 15.8245C33.091 15.7402 33.0239 15.64 32.9782 15.5297C32.9325 15.4194 32.9089 15.3012 32.9089 15.1818C32.9089 15.0624 32.9325 14.9442 32.9782 14.8339C33.0239 14.7236 33.091 14.6234 33.1755 14.5391L35.7145 12L33.1755 9.46091C33.0911 9.3765 33.0241 9.2763 32.9784 9.16602C32.9327 9.05574 32.9092 8.93755 32.9092 8.81818C32.9092 8.69882 32.9327 8.58062 32.9784 8.47034C33.0241 8.36006 33.0911 8.25986 33.1755 8.17545C33.2599 8.09105 33.3601 8.0241 33.4703 7.97842C33.5806 7.93274 33.6988 7.90923 33.8182 7.90923C33.9375 7.90923 34.0557 7.93274 34.166 7.97842C34.2763 8.0241 34.3765 8.09105 34.4609 8.17546L37 10.7145L39.5391 8.17546C39.6235 8.09105 39.7237 8.0241 39.834 7.97842C39.9443 7.93274 40.0625 7.90923 40.1818 7.90923C40.3012 7.90923 40.4194 7.93274 40.5297 7.97842C40.6399 8.0241 40.7401 8.09105 40.8245 8.17546C40.909 8.25986 40.9759 8.36006 41.0216 8.47034C41.0673 8.58062 41.0908 8.69882 41.0908 8.81818C41.0908 8.93755 41.0673 9.05574 41.0216 9.16602C40.9759 9.2763 40.909 9.3765 40.8245 9.46091L38.2855 12L40.8245 14.5391ZM37 2C31.4773 2 27 6.47727 27 12C27 17.5227 31.4773 22 37 22C42.5227 22 47 17.5227 47 12C47 6.47727 42.5227 2 37 2Z" fill="#C2D9FC" style="fill:#C2D9FC;fill:color(display-p3 0.7608 0.8510 0.9882);fill-opacity:1;"/>
</svg>
