<svg width="24" height="24" viewBox="0 0 24 24" fill="none" xmlns="http://www.w3.org/2000/svg">
<path fill-rule="evenodd" clip-rule="evenodd" d="M16.371 14.9017C16.4674 14.9981 16.5439 15.1127 16.5961 15.2387C16.6483 15.3647 16.6752 15.4998 16.6752 15.6362C16.6752 15.7726 16.6483 15.9077 16.5961 16.0338C16.5439 16.1598 16.4674 16.2743 16.371 16.3708C16.2745 16.4672 16.16 16.5437 16.0339 16.596C15.9079 16.6482 15.7728 16.675 15.6364 16.675C15.5 16.675 15.3649 16.6482 15.2389 16.596C15.1128 16.5437 14.9983 16.4672 14.9019 16.3708L12 13.469L9.09823 16.3708C9.00196 16.4676 8.88751 16.5444 8.76145 16.5968C8.63539 16.6493 8.50021 16.6763 8.36368 16.6763C8.22715 16.6763 8.09197 16.6493 7.96591 16.5968C7.83985 16.5444 7.7254 16.4676 7.62913 16.3708C7.53257 16.2744 7.45596 16.1599 7.40369 16.0338C7.35142 15.9078 7.32451 15.7727 7.32451 15.6362C7.32451 15.4998 7.35142 15.3647 7.40369 15.2386C7.45596 15.1126 7.53257 14.9981 7.62913 14.9017L10.531 11.9999L7.62913 9.09804C7.53267 9.00158 7.45616 8.88706 7.40395 8.76103C7.35175 8.635 7.32488 8.49991 7.32488 8.3635C7.32488 8.22708 7.35175 8.092 7.40395 7.96596C7.45616 7.83993 7.53267 7.72541 7.62913 7.62895C7.7256 7.53249 7.84011 7.45597 7.96615 7.40377C8.09218 7.35156 8.22726 7.32469 8.36368 7.32469C8.5001 7.32469 8.63518 7.35156 8.76121 7.40377C8.88725 7.45597 9.00176 7.53249 9.09823 7.62895L12 10.5308L14.9019 7.62895C14.9983 7.53249 15.1128 7.45597 15.2389 7.40377C15.3649 7.35156 15.5 7.32469 15.6364 7.32469C15.7728 7.32469 15.9079 7.35156 16.0339 7.40377C16.16 7.45597 16.2745 7.53249 16.371 7.62895C16.4674 7.72541 16.5439 7.83993 16.5961 7.96596C16.6483 8.092 16.6752 8.22708 16.6752 8.3635C16.6752 8.49991 16.6483 8.635 16.5961 8.76103C16.5439 8.88706 16.4674 9.00158 16.371 9.09804L13.4691 11.9999L16.371 14.9017ZM12 0.571289C5.68836 0.571289 0.571472 5.68817 0.571472 11.9999C0.571472 18.3115 5.68836 23.4284 12 23.4284C18.3117 23.4284 23.4286 18.3115 23.4286 11.9999C23.4286 5.68817 18.3117 0.571289 12 0.571289Z" fill="#D2D6DB" style="fill:#D2D6DB;fill:color(display-p3 0.8235 0.8392 0.8588);fill-opacity:1;"/>
</svg>
