<svg width="36" height="36" viewBox="0 0 36 36" fill="none" xmlns="http://www.w3.org/2000/svg">
<g id="dumbbells/Styles3" clip-path="url(#clip0_47_2763)">
<path id="Vector" fill-rule="evenodd" clip-rule="evenodd" d="M29.1371 2.61928C27.9655 1.4477 26.066 1.4477 24.8944 2.61928L24.3642 3.14967L32.8494 11.635L33.3797 11.1046C34.5513 9.93298 34.5513 8.03349 33.3797 6.86192L29.1371 2.61928ZM16.9396 3.1495C18.1041 1.98494 19.9879 1.97797 21.1611 3.1286L32.8704 14.8379C34.021 16.0111 34.014 17.8948 32.8495 19.0594C31.6779 20.231 29.7784 20.231 28.6068 19.0594L25.4249 15.8774L25.4248 15.8775L20.1215 10.5742L20.1216 10.5741L16.9396 7.39214C15.768 6.22057 15.768 4.32108 16.9396 3.1495ZM18.5305 12.1652L12.1665 18.5292L17.4698 23.8325L23.8338 17.4685L18.5305 12.1652ZM3.15099 16.9381C4.31558 15.7735 6.19943 15.7666 7.3726 16.9173L19.0817 28.6264C20.2324 29.7995 20.2255 31.6834 19.0609 32.848C17.8893 34.0196 15.9898 34.0196 14.8183 32.848L13.2276 31.2573L13.2275 31.2574L4.7422 22.7721L4.74231 22.772L3.15099 21.1807C1.97942 20.0092 1.97942 18.1097 3.15099 16.9381ZM3.15121 24.3631L2.62148 24.8929C1.44991 26.0644 1.44991 27.9639 2.62148 29.1355L6.86412 33.3781C8.0357 34.5497 9.93519 34.5497 11.1068 33.3781L11.6365 32.8484L3.15121 24.3631Z" fill="white" style="fill:white;fill-opacity:1;"/>
</g>
<defs>
<clipPath id="clip0_47_2763">
<rect width="36" height="36" fill="white" style="fill:white;fill-opacity:1;"/>
</clipPath>
</defs>
</svg>
