<svg width="44" height="44" viewBox="0 0 44 44" fill="none" xmlns="http://www.w3.org/2000/svg">
<circle cx="22" cy="22" r="22" fill="#F4F6F7" style="fill:#F4F6F7;fill:color(display-p3 0.9569 0.9647 0.9686);fill-opacity:1;"/>
<path d="M31.163 14.9614C30.6335 14.4452 30.005 14.0358 29.3131 13.7564C28.6213 13.477 27.8797 13.3333 27.1309 13.3333C26.382 13.3333 25.6404 13.477 24.9486 13.7564C24.2568 14.0358 23.6282 14.4452 23.0988 14.9614L22 16.0322L20.9013 14.9614C19.832 13.9193 18.3816 13.3338 16.8692 13.3338C15.3569 13.3338 13.9065 13.9193 12.8371 14.9614C11.7678 16.0036 11.167 17.417 11.167 18.8909C11.167 20.3647 11.7678 21.7781 12.8371 22.8203L22 31.7499L31.163 22.8203C31.6926 22.3044 32.1128 21.6918 32.3994 21.0176C32.6861 20.3433 32.8337 19.6207 32.8337 18.8909C32.8337 18.161 32.6861 17.4384 32.3994 16.7642C32.1128 16.0899 31.6926 15.4774 31.163 14.9614Z" fill="#76C663" style="fill:#76C663;fill:color(display-p3 0.4635 0.7765 0.3901);fill-opacity:1;"/>
</svg>
