<svg xmlns="http://www.w3.org/2000/svg" width="26" height="26" viewBox="0 0 26 26" fill="none">
  <path d="M22.1626 5.96146C21.6332 5.44528 21.0046 5.03581 20.3127 4.75645C19.6209 4.47708 18.8794 4.33329 18.1305 4.33329C17.3816 4.33329 16.6401 4.47708 15.9482 4.75645C15.2564 5.03581 14.6278 5.44528 14.0984 5.96146L12.9997 7.0322L11.901 5.96146C10.8316 4.91931 9.38119 4.33383 7.86886 4.33383C6.35654 4.33383 4.90615 4.91931 3.83677 5.96146C2.76739 7.00361 2.16662 8.41707 2.16662 9.8909C2.16662 11.3647 2.76739 12.7782 3.83677 13.8203L12.9997 22.75L22.1626 13.8203C22.6922 13.3044 23.1124 12.6918 23.3991 12.0176C23.6857 11.3434 23.8333 10.6207 23.8333 9.8909C23.8333 9.16108 23.6857 8.43842 23.3991 7.7642C23.1124 7.08997 22.6922 6.47739 22.1626 5.96146Z" fill="#D2D6DB" style="fill:#D2D6DB;fill:color(display-p3 0.8235 0.8392 0.8588);fill-opacity:1;"/>
</svg>