<svg width="60" height="20" viewBox="0 0 60 20" fill="none" xmlns="http://www.w3.org/2000/svg">
<path d="M1.48 6.78V5.82C1.48 5.5 1.54 5.18 1.66 4.92C1.04 4.76 0.68 4.26 0.68 3.58C0.68 2.74 1.18 2.22 2.16 2.22H3.88C3.96 1.24 4.58 0.579999 5.76 0.579999C6.94 0.579999 7.54 1.24 7.62 2.22H9.34C10.32 2.22 10.84 2.74 10.84 3.58C10.84 4.26 10.48 4.76 9.84 4.92C9.96 5.2 10.02 5.5 10.02 5.82V6.78C10.02 9.02 8.7 10.54 5.76 10.54C2.82 10.54 1.48 9.02 1.48 6.78ZM10.42 6.48C10.42 5.56 11.02 4.92 12 4.86V2.36C12 1.42 12.6 0.739999 13.66 0.739999C14.72 0.739999 15.3 1.42 15.3 2.36V10.72H12V8.08C11.02 8.04 10.42 7.42 10.42 6.48ZM19.5 2.42V10.72H16.1V2.42C16.1 1.42 16.74 0.739999 17.8 0.739999C18.86 0.739999 19.5 1.42 19.5 2.42ZM6.66 7V5.74C6.66 5.08 6.3 4.72 5.76 4.72C5.2 4.72 4.84 5.08 4.84 5.74V7C4.84 7.64 5.2 7.94 5.76 7.94C6.3 7.94 6.66 7.64 6.66 7ZM6.82 17.18H18.9C19.7 17.18 20.04 17.78 20.04 18.38C20.04 18.94 19.72 19.52 18.9 19.52H4.96C3.14 19.52 2.16 18.38 2.16 17V16.54C2.16 15.2 3.14 14.3 4.96 14.3H15.46V13.86C15.46 13.62 15.4 13.52 15.14 13.52H3.48C2.7 13.52 2.38 12.96 2.38 12.36C2.38 11.8 2.72 11.22 3.48 11.22H17.18C18.92 11.22 19.52 11.74 19.52 13.26V16.38H6.82C6.54 16.38 6.4 16.56 6.4 16.74V16.82C6.4 17.02 6.54 17.18 6.82 17.18ZM32.04 15.84H37.68C38.88 15.84 39.36 16.66 39.36 17.48C39.36 18.34 38.86 19.12 37.68 19.12H22.32C21.14 19.12 20.64 18.34 20.64 17.48C20.64 16.66 21.12 15.84 22.32 15.84H27.96V13.06H25.32C22.72 13.06 21.36 11.7 21.36 9.54V9.18C21.36 7.04 22.72 5.72 25.32 5.72H34.06V5.08C34.06 4.82 33.98 4.52 33.52 4.52H23.1C22.16 4.52 21.58 3.74 21.58 2.92C21.58 2.14 22.16 1.34 23.1 1.34H34.72C37.44 1.34 38.22 2.58 38.22 4.46V8.74H26.36C25.9 8.74 25.68 8.96 25.68 9.34C25.68 9.76 25.9 9.94 26.36 9.94H37.22C38.32 9.94 38.74 10.78 38.74 11.52C38.74 12.26 38.3 13.06 37.22 13.06H32.04V15.84ZM58.4 2.72V12.92H54.4V2.72C54.4 1.42 55.34 0.739999 56.4 0.739999C57.46 0.739999 58.4 1.42 58.4 2.72ZM51.4 4.52H42.14C41.16 4.52 40.6 3.72 40.6 2.94C40.6 2.16 41.08 1.34 42.14 1.34H51.4C52.46 1.34 52.94 2.16 52.94 2.94C52.94 3.72 52.38 4.52 51.4 4.52ZM52.1 11.42H41.9C40.92 11.42 40.38 10.72 40.38 9.94C40.38 9.16 40.84 8.48 41.9 8.48H42.24V6.72C42.24 5.78 42.96 5.2 44.12 5.2C45.26 5.2 45.96 5.8 45.96 6.72V8.48H47.68V6.72C47.68 5.78 48.36 5.2 49.52 5.2C50.66 5.2 51.42 5.8 51.42 6.72V8.48H52.1C53.16 8.48 53.62 9.16 53.62 9.94C53.62 10.72 53.08 11.42 52.1 11.42ZM52.02 14.06C55.14 13.92 58.56 15.62 59.06 19.52H54.96C54.58 17.92 52.8 16.68 50.5 17C48.8 18.72 45.64 19.84 43.06 19.68C41.86 19.62 41.24 18.94 41.24 17.92C41.24 17.02 41.88 16.38 43.04 16.38C45.58 16.36 47.36 15.22 48.04 13.58C48.52 12.42 49.16 12.1 50.14 12.1C51.3 12.1 52.04 12.78 52.04 13.68C52.04 13.82 52.04 13.92 52.02 14.06Z" fill="#8CCC7D" style="fill:#8CCC7D;fill:color(display-p3 0.5509 0.8007 0.4896);fill-opacity:1;"/>
</svg>
