<svg width="32" height="32" viewBox="0 0 32 32" fill="none" xmlns="http://www.w3.org/2000/svg">
<circle cx="16" cy="16.0005" r="16" fill="white" style="fill:white;fill-opacity:1;"/>
<path d="M10 21.3212C10 18.9615 11.9714 17.0486 16 17.0486C20.0286 17.0486 22 18.9615 22 21.3212C22 21.6966 21.7261 22.001 21.3882 22.001H10.6118C10.2739 22.001 10 21.6966 10 21.3212Z" fill="#D2D6DB" style="fill:#D2D6DB;fill:color(display-p3 0.8235 0.8392 0.8588);fill-opacity:1;"/>
<path d="M18.25 12.251C18.25 13.4936 17.2426 14.501 16 14.501C14.7574 14.501 13.75 13.4936 13.75 12.251C13.75 11.0083 14.7574 10.001 16 10.001C17.2426 10.001 18.25 11.0083 18.25 12.251Z" fill="#D2D6DB" style="fill:#D2D6DB;fill:color(display-p3 0.8235 0.8392 0.8588);fill-opacity:1;"/>
<path d="M10 21.3212C10 18.9615 11.9714 17.0486 16 17.0486C20.0286 17.0486 22 18.9615 22 21.3212C22 21.6966 21.7261 22.001 21.3882 22.001H10.6118C10.2739 22.001 10 21.6966 10 21.3212Z" stroke="#D2D6DB" style="stroke:#D2D6DB;stroke:color(display-p3 0.8235 0.8392 0.8588);stroke-opacity:1;"/>
<path d="M18.25 12.251C18.25 13.4936 17.2426 14.501 16 14.501C14.7574 14.501 13.75 13.4936 13.75 12.251C13.75 11.0083 14.7574 10.001 16 10.001C17.2426 10.001 18.25 11.0083 18.25 12.251Z" stroke="#D2D6DB" style="stroke:#D2D6DB;stroke:color(display-p3 0.8235 0.8392 0.8588);stroke-opacity:1;"/>
</svg>
