<svg width="28" height="28" viewBox="0 0 28 28" fill="none" xmlns="http://www.w3.org/2000/svg">
<circle cx="14" cy="14" r="14" fill="#F4F6F7" style="fill:#F4F6F7;fill:color(display-p3 0.9569 0.9647 0.9686);fill-opacity:1;"/>
<path d="M8.75 18.6552C8.75 16.5905 10.475 14.9167 14 14.9167C17.525 14.9167 19.25 16.5905 19.25 18.6552C19.25 18.9837 19.0103 19.25 18.7147 19.25H9.28529C8.98966 19.25 8.75 18.9837 8.75 18.6552Z" fill="#D2D6DB" style="fill:#D2D6DB;fill:color(display-p3 0.8235 0.8392 0.8588);fill-opacity:1;"/>
<path d="M15.9687 10.7187C15.9687 11.8061 15.0873 12.6875 14 12.6875C12.9127 12.6875 12.0312 11.8061 12.0312 10.7187C12.0312 9.63144 12.9127 8.75 14 8.75C15.0873 8.75 15.9687 9.63144 15.9687 10.7187Z" fill="#D2D6DB" style="fill:#D2D6DB;fill:color(display-p3 0.8235 0.8392 0.8588);fill-opacity:1;"/>
<path d="M8.75 18.6552C8.75 16.5905 10.475 14.9167 14 14.9167C17.525 14.9167 19.25 16.5905 19.25 18.6552C19.25 18.9837 19.0103 19.25 18.7147 19.25H9.28529C8.98966 19.25 8.75 18.9837 8.75 18.6552Z" stroke="#D2D6DB" style="stroke:#D2D6DB;stroke:color(display-p3 0.8235 0.8392 0.8588);stroke-opacity:1;" stroke-width="0.875"/>
<path d="M15.9687 10.7187C15.9687 11.8061 15.0873 12.6875 14 12.6875C12.9127 12.6875 12.0312 11.8061 12.0312 10.7187C12.0312 9.63144 12.9127 8.75 14 8.75C15.0873 8.75 15.9687 9.63144 15.9687 10.7187Z" stroke="#D2D6DB" style="stroke:#D2D6DB;stroke:color(display-p3 0.8235 0.8392 0.8588);stroke-opacity:1;" stroke-width="0.875"/>
</svg>
