<svg width="30" height="30" viewBox="0 0 30 30" fill="none" xmlns="http://www.w3.org/2000/svg">
<path d="M13.5293 4.16884C14.131 2.89619 15.869 2.89619 16.4707 4.16884L18.842 9.18486C19.0807 9.68978 19.5419 10.0399 20.0755 10.1213L25.3811 10.931C26.7258 11.1363 27.2617 12.8622 26.2882 13.8522L22.4517 17.7539C22.0648 18.1473 21.8883 18.7144 21.9796 19.2701L22.8846 24.78C23.1144 26.1791 21.708 27.2459 20.5048 26.5852L15.7634 23.9817C15.2855 23.7193 14.7145 23.7193 14.2366 23.9817L9.49526 26.5852C8.29204 27.2459 6.88558 26.1791 7.11539 24.78L8.02047 19.2701C8.11176 18.7144 7.93518 18.1473 7.54833 17.7539L3.71182 13.8522C2.73828 12.8622 3.27423 11.1363 4.61897 10.931L9.92453 10.1213C10.4581 10.0399 10.9193 9.68977 11.158 9.18486L13.5293 4.16884Z" fill="#76C663" style="fill:#76C663;fill:color(display-p3 0.4635 0.7765 0.3901);fill-opacity:1;"/>
</svg>
